  0
SECTION
  2
HEADER
  9
$ACADVER
  1
AC1027
  9
$ACADMAINTVER
 70
105
  9
$DWGCODEPAGE
  3
ANSI_1252
  9
$LASTSAVEDBY
  1
ezdxf
  9
$REQUIREDVERSIONS
160
0
  9
$INSBASE
 10
0.0
 20
0.0
 30
0.0
  9
$EXTMIN
 10
1e+20
 20
1e+20
 30
1e+20
  9
$EXTMAX
 10
-1e+20
 20
-1e+20
 30
-1e+20
  9
$LIMMIN
 10
0.0
 20
0.0
  9
$LIMMAX
 10
420.0
 20
297.0
  9
$ORTHOMODE
 70
0
  9
$REGENMODE
 70
1
  9
$FILLMODE
 70
1
  9
$QTEXTMODE
 70
0
  9
$MIRRTEXT
 70
1
  9
$LTSCALE
 40
1.0
  9
$ATTMODE
 70
1
  9
$TEXTSIZE
 40
2.5
  9
$TRACEWID
 40
1.0
  9
$TEXTSTYLE
  7
Standard
  9
$CLAYER
  8
0
  9
$CELTYPE
  6
ByLayer
  9
$CECOLOR
 62
256
  9
$CELTSCALE
 40
1.0
  9
$DISPSILH
 70
0
  9
$DIMSCALE
 40
1.0
  9
$DIMASZ
 40
2.5
  9
$DIMEXO
 40
0.625
  9
$DIMDLI
 40
3.75
  9
$DIMRND
 40
0.0
  9
$DIMDLE
 40
0.0
  9
$DIMEXE
 40
1.25
  9
$DIMTP
 40
0.0
  9
$DIMTM
 40
0.0
  9
$DIMTXT
 40
2.5
  9
$DIMCEN
 40
2.5
  9
$DIMTSZ
 40
0.0
  9
$DIMTOL
 70
0
  9
$DIMLIM
 70
0
  9
$DIMTIH
 70
0
  9
$DIMTOH
 70
0
  9
$DIMSE1
 70
0
  9
$DIMSE2
 70
0
  9
$DIMTAD
 70
1
  9
$DIMZIN
 70
8
  9
$DIMBLK
  1

  9
$DIMASO
 70
1
  9
$DIMSHO
 70
1
  9
$DIMPOST
  1

  9
$DIMAPOST
  1

  9
$DIMALT
 70
0
  9
$DIMALTD
 70
3
  9
$DIMALTF
 40
0.03937007874
  9
$DIMLFAC
 40
1.0
  9
$DIMTOFL
 70
1
  9
$DIMTVP
 40
0.0
  9
$DIMTIX
 70
0
  9
$DIMSOXD
 70
0
  9
$DIMSAH
 70
0
  9
$DIMBLK1
  1

  9
$DIMBLK2
  1

  9
$DIMSTYLE
  2
ISO-25
  9
$DIMCLRD
 70
0
  9
$DIMCLRE
 70
0
  9
$DIMCLRT
 70
0
  9
$DIMTFAC
 40
1.0
  9
$DIMGAP
 40
0.625
  9
$DIMJUST
 70
0
  9
$DIMSD1
 70
0
  9
$DIMSD2
 70
0
  9
$DIMTOLJ
 70
0
  9
$DIMTZIN
 70
8
  9
$DIMALTZ
 70
0
  9
$DIMALTTZ
 70
0
  9
$DIMUPT
 70
0
  9
$DIMDEC
 70
2
  9
$DIMTDEC
 70
2
  9
$DIMALTU
 70
2
  9
$DIMALTTD
 70
3
  9
$DIMTXSTY
  7
Standard
  9
$DIMAUNIT
 70
0
  9
$DIMADEC
 70
0
  9
$DIMALTRND
 40
0.0
  9
$DIMAZIN
 70
0
  9
$DIMDSEP
 70
44
  9
$DIMATFIT
 70
3
  9
$DIMFRAC
 70
0
  9
$DIMLDRBLK
  1

  9
$DIMLUNIT
 70
2
  9
$DIMLWD
 70
-2
  9
$DIMLWE
 70
-2
  9
$DIMTMOVE
 70
0
  9
$DIMFXL
 40
1.0
  9
$DIMFXLON
 70
0
  9
$DIMJOGANG
 40
0.785398163397
  9
$DIMTFILL
 70
0
  9
$DIMTFILLCLR
 70
0
  9
$DIMARCSYM
 70
0
  9
$DIMLTYPE
  6

  9
$DIMLTEX1
  6

  9
$DIMLTEX2
  6

  9
$DIMTXTDIRECTION
 70
0
  9
$LUNITS
 70
2
  9
$LUPREC
 70
4
  9
$SKETCHINC
 40
1.0
  9
$FILLETRAD
 40
10.0
  9
$AUNITS
 70
0
  9
$AUPREC
 70
2
  9
$MENU
  1
.
  9
$ELEVATION
 40
0.0
  9
$PELEVATION
 40
0.0
  9
$THICKNESS
 40
0.0
  9
$LIMCHECK
 70
0
  9
$CHAMFERA
 40
0.0
  9
$CHAMFERB
 40
0.0
  9
$CHAMFERC
 40
0.0
  9
$CHAMFERD
 40
0.0
  9
$SKPOLY
 70
0
  9
$TDCREATE
 40
2461211.4246527776
  9
$TDUCREATE
 40
2458532.153996898
  9
$TDUPDATE
 40
2461211.4246527776
  9
$TDUUPDATE
 40
2458532.1544311
  9
$TDINDWG
 40
0.0
  9
$TDUSRTIMER
 40
0.0
  9
$USRTIMER
 70
1
  9
$ANGBASE
 50
0.0
  9
$ANGDIR
 70
0
  9
$PDMODE
 70
0
  9
$PDSIZE
 40
0.0
  9
$PLINEWID
 40
0.0
  9
$SPLFRAME
 70
0
  9
$SPLINETYPE
 70
6
  9
$SPLINESEGS
 70
8
  9
$HANDSEED
  5
174
  9
$SURFTAB1
 70
6
  9
$SURFTAB2
 70
6
  9
$SURFTYPE
 70
6
  9
$SURFU
 70
6
  9
$SURFV
 70
6
  9
$UCSBASE
  2

  9
$UCSNAME
  2

  9
$UCSORG
 10
0.0
 20
0.0
 30
0.0
  9
$UCSXDIR
 10
1.0
 20
0.0
 30
0.0
  9
$UCSYDIR
 10
0.0
 20
1.0
 30
0.0
  9
$UCSORTHOREF
  2

  9
$UCSORTHOVIEW
 70
0
  9
$UCSORGTOP
 10
0.0
 20
0.0
 30
0.0
  9
$UCSORGBOTTOM
 10
0.0
 20
0.0
 30
0.0
  9
$UCSORGLEFT
 10
0.0
 20
0.0
 30
0.0
  9
$UCSORGRIGHT
 10
0.0
 20
0.0
 30
0.0
  9
$UCSORGFRONT
 10
0.0
 20
0.0
 30
0.0
  9
$UCSORGBACK
 10
0.0
 20
0.0
 30
0.0
  9
$PUCSBASE
  2

  9
$PUCSNAME
  2

  9
$PUCSORG
 10
0.0
 20
0.0
 30
0.0
  9
$PUCSXDIR
 10
1.0
 20
0.0
 30
0.0
  9
$PUCSYDIR
 10
0.0
 20
1.0
 30
0.0
  9
$PUCSORTHOREF
  2

  9
$PUCSORTHOVIEW
 70
0
  9
$PUCSORGTOP
 10
0.0
 20
0.0
 30
0.0
  9
$PUCSORGBOTTOM
 10
0.0
 20
0.0
 30
0.0
  9
$PUCSORGLEFT
 10
0.0
 20
0.0
 30
0.0
  9
$PUCSORGRIGHT
 10
0.0
 20
0.0
 30
0.0
  9
$PUCSORGFRONT
 10
0.0
 20
0.0
 30
0.0
  9
$PUCSORGBACK
 10
0.0
 20
0.0
 30
0.0
  9
$USERI1
 70
0
  9
$USERI2
 70
0
  9
$USERI3
 70
0
  9
$USERI4
 70
0
  9
$USERI5
 70
0
  9
$USERR1
 40
0.0
  9
$USERR2
 40
0.0
  9
$USERR3
 40
0.0
  9
$USERR4
 40
0.0
  9
$USERR5
 40
0.0
  9
$WORLDVIEW
 70
1
  9
$SHADEDGE
 70
3
  9
$SHADEDIF
 70
70
  9
$TILEMODE
 70
1
  9
$MAXACTVP
 70
64
  9
$PINSBASE
 10
0.0
 20
0.0
 30
0.0
  9
$PLIMCHECK
 70
0
  9
$PEXTMIN
 10
1e+20
 20
1e+20
 30
1e+20
  9
$PEXTMAX
 10
-1e+20
 20
-1e+20
 30
-1e+20
  9
$PLIMMIN
 10
0.0
 20
0.0
  9
$PLIMMAX
 10
420.0
 20
297.0
  9
$UNITMODE
 70
0
  9
$VISRETAIN
 70
1
  9
$PLINEGEN
 70
0
  9
$PSLTSCALE
 70
1
  9
$TREEDEPTH
 70
3020
  9
$CMLSTYLE
  2
Standard
  9
$CMLJUST
 70
0
  9
$CMLSCALE
 40
20.0
  9
$PROXYGRAPHICS
 70
1
  9
$MEASUREMENT
 70
1
  9
$CELWEIGHT
370
-1
  9
$ENDCAPS
280
0
  9
$JOINSTYLE
280
0
  9
$LWDISPLAY
290
0
  9
$INSUNITS
 70
4
  9
$HYPERLINKBASE
  1

  9
$STYLESHEET
  1

  9
$XEDIT
290
1
  9
$CEPSNTYPE
380
0
  9
$PSTYLEMODE
290
1
  9
$FINGERPRINTGUID
  2
{E592059E-396E-48CB-BB68-EAD432C1170B}
  9
$VERSIONGUID
  2
{12D7DDC6-FE71-4A98-A8AD-2E47B8ADD638}
  9
$EXTNAMES
290
1
  9
$PSVPSCALE
 40
0.0
  9
$OLESTARTUP
290
0
  9
$SORTENTS
280
127
  9
$INDEXCTL
280
0
  9
$HIDETEXT
280
1
  9
$XCLIPFRAME
280
1
  9
$HALOGAP
280
0
  9
$OBSCOLOR
 70
257
  9
$OBSLTYPE
280
0
  9
$INTERSECTIONDISPLAY
280
0
  9
$INTERSECTIONCOLOR
 70
257
  9
$DIMASSOC
280
2
  9
$PROJECTNAME
  1

  9
$CAMERADISPLAY
290
0
  9
$LENSLENGTH
 40
50.0
  9
$CAMERAHEIGHT
 40
0.0
  9
$STEPSPERSEC
 40
24.0
  9
$STEPSIZE
 40
100.0
  9
$3DDWFPREC
 40
2.0
  9
$PSOLWIDTH
 40
0.005
  9
$PSOLHEIGHT
 40
0.08
  9
$LOFTANG1
 40
1.570796326795
  9
$LOFTANG2
 40
1.570796326795
  9
$LOFTMAG1
 40
0.0
  9
$LOFTMAG2
 40
0.0
  9
$LOFTPARAM
 70
7
  9
$LOFTNORMALS
280
1
  9
$LATITUDE
 40
37.795
  9
$LONGITUDE
 40
-122.394
  9
$NORTHDIRECTION
 40
0.0
  9
$TIMEZONE
 70
-8000
  9
$LIGHTGLYPHDISPLAY
280
1
  9
$TILEMODELIGHTSYNCH
280
1
  9
$CMATERIAL
347
20
  9
$SOLIDHIST
280
0
  9
$SHOWHIST
280
1
  9
$DWFFRAME
280
2
  9
$DGNFRAME
280
2
  9
$REALWORLDSCALE
290
1
  9
$INTERFERECOLOR
 62
256
  9
$CSHADOW
280
0
  9
$SHADOWPLANELOCATION
 40
0.0
  0
ENDSEC
  0
SECTION
  2
CLASSES
  0
CLASS
  1
ACDBDICTIONARYWDFLT
  2
AcDbDictionaryWithDefault
  3
ObjectDBX Classes
 90
0
 91
0
280
0
281
0
  0
CLASS
  1
SUN
  2
AcDbSun
  3
SCENEOE
 90
1153
 91
0
280
0
281
0
  0
CLASS
  1
VISUALSTYLE
  2
AcDbVisualStyle
  3
ObjectDBX Classes
 90
4095
 91
0
280
0
281
0
  0
CLASS
  1
MATERIAL
  2
AcDbMaterial
  3
ObjectDBX Classes
 90
1153
 91
0
280
0
281
0
  0
CLASS
  1
SCALE
  2
AcDbScale
  3
ObjectDBX Classes
 90
1153
 91
0
280
0
281
0
  0
CLASS
  1
TABLESTYLE
  2
AcDbTableStyle
  3
ObjectDBX Classes
 90
4095
 91
0
280
0
281
0
  0
CLASS
  1
MLEADERSTYLE
  2
AcDbMLeaderStyle
  3
ACDB_MLEADERSTYLE_CLASS
 90
4095
 91
0
280
0
281
0
  0
CLASS
  1
DICTIONARYVAR
  2
AcDbDictionaryVar
  3
ObjectDBX Classes
 90
0
 91
0
280
0
281
0
  0
CLASS
  1
CELLSTYLEMAP
  2
AcDbCellStyleMap
  3
ObjectDBX Classes
 90
1152
 91
0
280
0
281
0
  0
CLASS
  1
MENTALRAYRENDERSETTINGS
  2
AcDbMentalRayRenderSettings
  3
SCENEOE
 90
1024
 91
0
280
0
281
0
  0
CLASS
  1
ACDBDETAILVIEWSTYLE
  2
AcDbDetailViewStyle
  3
ObjectDBX Classes
 90
1025
 91
0
280
0
281
0
  0
CLASS
  1
ACDBSECTIONVIEWSTYLE
  2
AcDbSectionViewStyle
  3
ObjectDBX Classes
 90
1025
 91
0
280
0
281
0
  0
CLASS
  1
RASTERVARIABLES
  2
AcDbRasterVariables
  3
ISM
 90
0
 91
0
280
0
281
0
  0
CLASS
  1
LAYOUT
  2
AcDbLayout
  3
ObjectDBX Classes
 90
0
 91
0
280
0
281
0
  0
CLASS
  1
ACDBPLACEHOLDER
  2
AcDbPlaceHolder
  3
ObjectDBX Classes
 90
0
 91
0
280
0
281
0
  0
ENDSEC
  0
SECTION
  2
TABLES
  0
TABLE
  2
VPORT
  5
8
330
0
100
AcDbSymbolTable
 70
1
  0
VPORT
  5
23
330
8
100
AcDbSymbolTableRecord
100
AcDbViewportTableRecord
  2
*Active
 70
0
 10
0.0
 20
0.0
 11
1.0
 21
1.0
 12
0.0
 22
0.0
 13
0.0
 23
0.0
 14
0.5
 24
0.5
 15
0.5
 25
0.5
 16
0.0
 26
0.0
 36
1.0
 17
0.0
 27
0.0
 37
0.0
 40
1000.0
 41
1.34
 42
50.0
 43
0.0
 44
0.0
 50
0.0
 51
0.0
 71
0
 72
1000
 73
1
 74
3
 75
0
 76
0
 77
0
 78
0
281
0
 65
0
146
0.0
  0
ENDTAB
  0
TABLE
  2
LTYPE
  5
2
330
0
100
AcDbSymbolTable
 70
3
  0
LTYPE
  5
24
330
2
100
AcDbSymbolTableRecord
100
AcDbLinetypeTableRecord
  2
ByBlock
 70
0
  3

 72
65
 73
0
 40
0.0
  0
LTYPE
  5
25
330
2
100
AcDbSymbolTableRecord
100
AcDbLinetypeTableRecord
  2
ByLayer
 70
0
  3

 72
65
 73
0
 40
0.0
  0
LTYPE
  5
26
330
2
100
AcDbSymbolTableRecord
100
AcDbLinetypeTableRecord
  2
Continuous
 70
0
  3

 72
65
 73
0
 40
0.0
  0
ENDTAB
  0
TABLE
  2
LAYER
  5
1
330
0
100
AcDbSymbolTable
 70
2
  0
LAYER
  5
27
330
1
100
AcDbSymbolTableRecord
100
AcDbLayerTableRecord
  2
0
 70
0
 62
7
  6
Continuous
370
-3
390
13
347
21
  0
LAYER
  5
28
330
1
100
AcDbSymbolTableRecord
100
AcDbLayerTableRecord
  2
Defpoints
 70
0
 62
7
  6
Continuous
290
0
370
-3
390
13
347
21
  0
ENDTAB
  0
TABLE
  2
STYLE
  5
5
330
0
100
AcDbSymbolTable
 70
1
  0
STYLE
  5
29
330
5
100
AcDbSymbolTableRecord
100
AcDbTextStyleTableRecord
  2
Standard
 70
0
 40
0.0
 41
1.0
 50
0.0
 71
0
 42
2.5
  3
txt
  4

  0
ENDTAB
  0
TABLE
  2
VIEW
  5
7
330
0
100
AcDbSymbolTable
 70
0
  0
ENDTAB
  0
TABLE
  2
UCS
  5
6
330
0
100
AcDbSymbolTable
 70
0
  0
ENDTAB
  0
TABLE
  2
APPID
  5
3
330
0
100
AcDbSymbolTable
 70
3
  0
APPID
  5
2A
330
3
100
AcDbSymbolTableRecord
100
AcDbRegAppTableRecord
  2
ACAD
 70
0
  0
APPID
  5
171
330
3
100
AcDbSymbolTableRecord
100
AcDbRegAppTableRecord
  2
HATCHBACKGROUNDCOLOR
 70
0
  0
APPID
  5
172
330
3
100
AcDbSymbolTableRecord
100
AcDbRegAppTableRecord
  2
EZDXF
 70
0
  0
ENDTAB
  0
TABLE
  2
DIMSTYLE
  5
4
330
0
100
AcDbSymbolTable
 70
1
100
AcDbDimStyleTable
  0
DIMSTYLE
105
2B
330
4
100
AcDbSymbolTableRecord
100
AcDbDimStyleTableRecord
  2
Standard
 70
0
 40
1.0
 41
2.5
 42
0.625
 43
3.75
 44
1.25
 45
0.0
 46
0.0
 47
0.0
 48
0.0
 49
2.5
140
2.5
141
2.5
142
0.0
143
0.03937007874
144
1.0
145
0.0
146
1.0
147
0.625
148
0.0
 69
0
 70
0
 71
0
 72
0
 73
0
 74
0
 75
0
 76
0
 77
1
 78
8
 79
3
170
0
171
3
172
1
173
0
174
0
175
0
176
0
177
0
178
0
179
2
271
2
272
2
273
2
274
3
275
0
276
0
277
2
278
44
279
0
280
0
281
0
282
0
283
0
284
8
285
0
286
0
288
0
289
3
290
0
371
-2
372
-2
  0
ENDTAB
  0
TABLE
  2
BLOCK_RECORD
  5
9
330
0
100
AcDbSymbolTable
 70
2
  0
BLOCK_RECORD
  5
17
330
9
100
AcDbSymbolTableRecord
100
AcDbBlockTableRecord
  2
*Model_Space
340
1A
 70
0
280
1
281
0
  0
BLOCK_RECORD
  5
1B
330
9
100
AcDbSymbolTableRecord
100
AcDbBlockTableRecord
  2
*Paper_Space
340
1E
 70
0
280
1
281
0
  0
ENDTAB
  0
ENDSEC
  0
SECTION
  2
BLOCKS
  0
BLOCK
  5
18
330
17
100
AcDbEntity
  8
0
100
AcDbBlockBegin
  2
*Model_Space
 70
0
 10
0.0
 20
0.0
 30
0.0
  3
*Model_Space
  1

  0
ENDBLK
  5
19
330
17
100
AcDbEntity
  8
0
100
AcDbBlockEnd
  0
BLOCK
  5
1C
330
1B
100
AcDbEntity
  8
0
100
AcDbBlockBegin
  2
*Paper_Space
 70
0
 10
0.0
 20
0.0
 30
0.0
  3
*Paper_Space
  1

  0
ENDBLK
  5
1D
330
1B
100
AcDbEntity
  8
0
100
AcDbBlockEnd
  0
ENDSEC
  0
SECTION
  2
ENTITIES
  0
LINE
  5
2F
330
17
100
AcDbEntity
  8
0
100
AcDbLine
 10
3689.171689828511
 20
192.859144471288
 30
0.0
 11
3689.171689828511
 21
208.399144471288
 31
0.0
  0
LINE
  5
30
330
17
100
AcDbEntity
  8
0
100
AcDbLine
 10
3699.89168982851
 20
192.579144471288
 30
0.0
 11
3689.45168982851
 21
192.579144471288
 31
0.0
  0
LINE
  5
31
330
17
100
AcDbEntity
  8
0
100
AcDbLine
 10
3700.171689828511
 20
208.399144471288
 30
0.0
 11
3700.171689828511
 21
192.859144471288
 31
0.0
  0
LINE
  5
32
330
17
100
AcDbEntity
  8
0
100
AcDbLine
 10
3689.45168982851
 20
208.679144471288
 30
0.0
 11
3699.89168982851
 21
208.679144471288
 31
0.0
  0
LINE
  5
33
330
17
100
AcDbEntity
  8
0
100
AcDbLine
 10
3694.671689828511
 20
209.279144471288
 30
0.0
 11
3694.671689828511
 21
191.979144471287
 31
0.0
  0
LINE
  5
34
330
17
100
AcDbEntity
  8
0
100
AcDbLine
 10
3688.671689828511
 20
200.629144471289
 30
0.0
 11
3700.671689828511
 21
200.629144471289
 31
0.0
  0
LINE
  5
35
330
17
100
AcDbEntity
  8
0
100
AcDbLine
 10
3706.971689828507
 20
200.629144471289
 30
0.0
 11
3718.971689828507
 21
200.629144471289
 31
0.0
  0
LINE
  5
36
330
17
100
AcDbEntity
  8
0
100
AcDbLine
 10
3707.751689828507
 20
208.679144471288
 30
0.0
 11
3718.191689828507
 21
208.679144471288
 31
0.0
  0
LINE
  5
37
330
17
100
AcDbEntity
  8
0
100
AcDbLine
 10
3718.471689828507
 20
208.399144471288
 30
0.0
 11
3718.471689828507
 21
192.859144471288
 31
0.0
  0
LINE
  5
38
330
17
100
AcDbEntity
  8
0
100
AcDbLine
 10
3718.191689828507
 20
192.579144471288
 30
0.0
 11
3707.751689828507
 21
192.579144471288
 31
0.0
  0
LINE
  5
39
330
17
100
AcDbEntity
  8
0
100
AcDbLine
 10
3707.471689828507
 20
192.859144471288
 30
0.0
 11
3707.471689828507
 21
208.399144471288
 31
0.0
  0
LINE
  5
3A
330
17
100
AcDbEntity
  8
0
100
AcDbLine
 10
3712.971689828507
 20
191.979144471287
 30
0.0
 11
3712.971689828507
 21
209.279144471288
 31
0.0
  0
LINE
  5
3B
330
17
100
AcDbEntity
  8
0
100
AcDbLine
 10
3669.671689828504
 20
191.779144471287
 30
0.0
 11
3669.671689828504
 21
208.479144471288
 31
0.0
  0
LINE
  5
3C
330
17
100
AcDbEntity
  8
0
100
AcDbLine
 10
3680.08884711603
 20
191.579144471288
 30
0.0
 11
3669.871689828504
 21
191.579144471288
 31
0.0
  0
LINE
  5
3D
330
17
100
AcDbEntity
  8
0
100
AcDbLine
 10
3681.671689828504
 20
208.479144471288
 30
0.0
 11
3681.671689828504
 21
193.161987183763
 31
0.0
  0
LINE
  5
3E
330
17
100
AcDbEntity
  8
0
100
AcDbLine
 10
3669.871689828504
 20
208.679144471288
 30
0.0
 11
3681.471689828505
 21
208.679144471288
 31
0.0
  0
LINE
  5
3F
330
17
100
AcDbEntity
  8
0
100
AcDbLine
 10
3661.788847116034
 20
191.579144471288
 30
0.0
 11
3651.571689828509
 21
191.579144471288
 31
0.0
  0
LINE
  5
40
330
17
100
AcDbEntity
  8
0
100
AcDbLine
 10
3663.371689828508
 20
208.479144471288
 30
0.0
 11
3663.371689828508
 21
193.161987183763
 31
0.0
  0
LINE
  5
41
330
17
100
AcDbEntity
  8
0
100
AcDbLine
 10
3651.571689828509
 20
208.679144471288
 30
0.0
 11
3663.171689828508
 21
208.679144471288
 31
0.0
  0
LINE
  5
42
330
17
100
AcDbEntity
  8
0
100
AcDbLine
 10
3651.371689828508
 20
191.779144471287
 30
0.0
 11
3651.371689828508
 21
208.479144471288
 31
0.0
  0
LINE
  5
43
330
17
100
AcDbEntity
  8
0
100
AcDbLine
 10
3681.613111184741
 20
193.020565827525
 30
0.0
 11
3680.230268472267
 21
191.637723115051
 31
0.0
  0
LINE
  5
44
330
17
100
AcDbEntity
  8
0
100
AcDbLine
 10
3663.313111184745
 20
193.020565827525
 30
0.0
 11
3661.930268472271
 21
191.637723115051
 31
0.0
  0
LINE
  5
45
330
17
100
AcDbEntity
  8
0
100
AcDbLine
 10
3670.763111184739
 20
259.540565827525
 30
0.0
 11
3669.380268472265
 21
258.157723115051
 31
0.0
  0
LINE
  5
46
330
17
100
AcDbEntity
  8
0
100
AcDbLine
 10
3652.463111184743
 20
259.540565827525
 30
0.0
 11
3651.080268472269
 21
258.157723115051
 31
0.0
  0
LINE
  5
47
330
17
100
AcDbEntity
  8
0
100
AcDbLine
 10
3615.796689828506
 20
299.039144471289
 30
0.0
 11
3609.796689828506
 21
299.039144471289
 31
0.0
  0
LINE
  5
48
330
17
100
AcDbEntity
  8
0
100
AcDbLine
 10
3609.796689828506
 20
302.139144471289
 30
0.0
 11
3615.796689828506
 21
302.139144471289
 31
0.0
  0
LINE
  5
49
330
17
100
AcDbEntity
  8
0
100
AcDbLine
 10
3615.796689828506
 20
298.589144471288
 30
0.0
 11
3609.796689828506
 21
298.589144471288
 31
0.0
  0
LINE
  5
4A
330
17
100
AcDbEntity
  8
0
100
AcDbLine
 10
3615.796689828506
 20
302.589144471288
 30
0.0
 11
3615.796689828506
 21
302.139144471289
 31
0.0
  0
LINE
  5
4B
330
17
100
AcDbEntity
  8
0
100
AcDbLine
 10
3615.796689828506
 20
302.139144471289
 30
0.0
 11
3615.796689828506
 21
299.039144471289
 31
0.0
  0
LINE
  5
4C
330
17
100
AcDbEntity
  8
0
100
AcDbLine
 10
3615.796689828506
 20
299.039144471289
 30
0.0
 11
3615.796689828506
 21
298.589144471288
 31
0.0
  0
LINE
  5
4D
330
17
100
AcDbEntity
  8
0
100
AcDbLine
 10
3609.796689828506
 20
302.589144471288
 30
0.0
 11
3615.796689828506
 21
302.589144471288
 31
0.0
  0
LINE
  5
4E
330
17
100
AcDbEntity
  8
0
100
AcDbLine
 10
3637.896689828506
 20
228.089144471288
 30
0.0
 11
3646.615024445867
 21
228.089144471288
 31
0.0
  0
LINE
  5
4F
330
17
100
AcDbEntity
  8
0
100
AcDbLine
 10
3777.796689828506
 20
184.789144471289
 30
0.0
 11
3768.046689828506
 21
184.789144471289
 31
0.0
  0
LINE
  5
50
330
17
100
AcDbEntity
  8
0
100
AcDbLine
 10
3777.796689828506
 20
266.389144471288
 30
0.0
 11
3768.046689828506
 21
266.389144471288
 31
0.0
  0
LINE
  5
51
330
17
100
AcDbEntity
  8
0
100
AcDbLine
 10
3777.796689828506
 20
325.589144471288
 30
0.0
 11
3609.796689828506
 21
325.589144471288
 31
0.0
  0
LINE
  5
52
330
17
100
AcDbEntity
  8
0
100
AcDbLine
 10
3777.796689828506
 20
125.589144471288
 30
0.0
 11
3777.796689828506
 21
184.789144471289
 31
0.0
  0
LINE
  5
53
330
17
100
AcDbEntity
  8
0
100
AcDbLine
 10
3777.796689828506
 20
184.789144471289
 30
0.0
 11
3777.796689828506
 21
266.389144471288
 31
0.0
  0
LINE
  5
54
330
17
100
AcDbEntity
  8
0
100
AcDbLine
 10
3777.796689828506
 20
266.389144471288
 30
0.0
 11
3777.796689828506
 21
325.589144471288
 31
0.0
  0
LINE
  5
55
330
17
100
AcDbEntity
  8
0
100
AcDbLine
 10
3657.496689828506
 20
223.089144471288
 30
0.0
 11
3637.896689828506
 21
223.089144471288
 31
0.0
  0
LINE
  5
56
330
17
100
AcDbEntity
  8
0
100
AcDbLine
 10
3637.696689828506
 20
223.289144471288
 30
0.0
 11
3637.696689828506
 21
227.889144471288
 31
0.0
  0
LINE
  5
57
330
17
100
AcDbEntity
  8
0
100
AcDbLine
 10
3648.778355211145
 20
228.089144471288
 30
0.0
 11
3657.496689828506
 21
228.089144471288
 31
0.0
  0
LINE
  5
58
330
17
100
AcDbEntity
  8
0
100
AcDbLine
 10
3657.696689828506
 20
227.889144471288
 30
0.0
 11
3657.696689828506
 21
223.289144471288
 31
0.0
  0
LINE
  5
59
330
17
100
AcDbEntity
  8
0
100
AcDbLine
 10
3651.696689828506
 20
221.589144471288
 30
0.0
 11
3643.696689828506
 21
221.589144471288
 31
0.0
  0
LINE
  5
5A
330
17
100
AcDbEntity
  8
0
100
AcDbLine
 10
3694.321689828505
 20
259.199144471289
 30
0.0
 11
3694.321689828505
 21
241.899144471288
 31
0.0
  0
LINE
  5
5B
330
17
100
AcDbEntity
  8
0
100
AcDbLine
 10
3700.321689828505
 20
250.549144471287
 30
0.0
 11
3688.321689828505
 21
250.549144471287
 31
0.0
  0
LINE
  5
5C
330
17
100
AcDbEntity
  8
0
100
AcDbLine
 10
3718.621689828501
 20
250.549144471287
 30
0.0
 11
3706.621689828501
 21
250.549144471287
 31
0.0
  0
LINE
  5
5D
330
17
100
AcDbEntity
  8
0
100
AcDbLine
 10
3712.621689828501
 20
241.899144471288
 30
0.0
 11
3712.621689828501
 21
259.199144471289
 31
0.0
  0
LINE
  5
5E
330
17
100
AcDbEntity
  8
0
100
AcDbLine
 10
3717.841689828502
 20
242.499144471288
 30
0.0
 11
3707.401689828502
 21
242.499144471288
 31
0.0
  0
LINE
  5
5F
330
17
100
AcDbEntity
  8
0
100
AcDbLine
 10
3707.121689828501
 20
242.779144471288
 30
0.0
 11
3707.121689828501
 21
258.319144471288
 31
0.0
  0
LINE
  5
60
330
17
100
AcDbEntity
  8
0
100
AcDbLine
 10
3707.401689828502
 20
258.599144471288
 30
0.0
 11
3717.841689828502
 21
258.599144471288
 31
0.0
  0
LINE
  5
61
330
17
100
AcDbEntity
  8
0
100
AcDbLine
 10
3718.121689828501
 20
258.319144471288
 30
0.0
 11
3718.121689828501
 21
242.779144471288
 31
0.0
  0
LINE
  5
62
330
17
100
AcDbEntity
  8
0
100
AcDbLine
 10
3699.821689828505
 20
258.319144471288
 30
0.0
 11
3699.821689828505
 21
242.779144471288
 31
0.0
  0
LINE
  5
63
330
17
100
AcDbEntity
  8
0
100
AcDbLine
 10
3689.101689828505
 20
258.599144471288
 30
0.0
 11
3699.541689828505
 21
258.599144471288
 31
0.0
  0
LINE
  5
64
330
17
100
AcDbEntity
  8
0
100
AcDbLine
 10
3688.821689828505
 20
242.779144471288
 30
0.0
 11
3688.821689828505
 21
258.319144471288
 31
0.0
  0
LINE
  5
65
330
17
100
AcDbEntity
  8
0
100
AcDbLine
 10
3699.541689828505
 20
242.499144471288
 30
0.0
 11
3689.101689828505
 21
242.499144471288
 31
0.0
  0
LINE
  5
66
330
17
100
AcDbEntity
  8
0
100
AcDbLine
 10
3681.321689828502
 20
242.699144471288
 30
0.0
 11
3681.321689828502
 21
259.399144471289
 31
0.0
  0
LINE
  5
67
330
17
100
AcDbEntity
  8
0
100
AcDbLine
 10
3669.521689828502
 20
242.499144471288
 30
0.0
 11
3681.121689828501
 21
242.499144471288
 31
0.0
  0
LINE
  5
68
330
17
100
AcDbEntity
  8
0
100
AcDbLine
 10
3669.321689828502
 20
258.016301758814
 30
0.0
 11
3669.321689828502
 21
242.699144471288
 31
0.0
  0
LINE
  5
69
330
17
100
AcDbEntity
  8
0
100
AcDbLine
 10
3681.121689828501
 20
259.599144471288
 30
0.0
 11
3670.904532540977
 21
259.599144471288
 31
0.0
  0
LINE
  5
6A
330
17
100
AcDbEntity
  8
0
100
AcDbLine
 10
3651.221689828505
 20
242.499144471288
 30
0.0
 11
3662.821689828506
 21
242.499144471288
 31
0.0
  0
LINE
  5
6B
330
17
100
AcDbEntity
  8
0
100
AcDbLine
 10
3651.021689828506
 20
258.016301758814
 30
0.0
 11
3651.021689828506
 21
242.699144471288
 31
0.0
  0
LINE
  5
6C
330
17
100
AcDbEntity
  8
0
100
AcDbLine
 10
3662.821689828506
 20
259.599144471288
 30
0.0
 11
3652.604532540981
 21
259.599144471288
 31
0.0
  0
LINE
  5
6D
330
17
100
AcDbEntity
  8
0
100
AcDbLine
 10
3663.021689828506
 20
242.699144471288
 30
0.0
 11
3663.021689828506
 21
259.399144471289
 31
0.0
  0
LINE
  5
6E
330
17
100
AcDbEntity
  8
0
100
AcDbLine
 10
3609.796689828506
 20
325.589144471288
 30
0.0
 11
3609.796689828506
 21
305.089144471288
 31
0.0
  0
LINE
  5
6F
330
17
100
AcDbEntity
  8
0
100
AcDbLine
 10
3609.796689828506
 20
280.089144471288
 30
0.0
 11
3609.796689828506
 21
266.389144471288
 31
0.0
  0
LINE
  5
70
330
17
100
AcDbEntity
  8
0
100
AcDbLine
 10
3609.796689828506
 20
266.389144471288
 30
0.0
 11
3609.796689828506
 21
184.789144471289
 31
0.0
  0
LINE
  5
71
330
17
100
AcDbEntity
  8
0
100
AcDbLine
 10
3609.796689828506
 20
184.789144471289
 30
0.0
 11
3609.796689828506
 21
125.589144471288
 31
0.0
  0
LINE
  5
72
330
17
100
AcDbEntity
  8
0
100
AcDbLine
 10
3609.796689828506
 20
125.589144471288
 30
0.0
 11
3777.796689828506
 21
125.589144471288
 31
0.0
  0
LINE
  5
73
330
17
100
AcDbEntity
  8
0
100
AcDbLine
 10
3515.01602963012
 20
125.589144471288
 30
0.0
 11
3535.016029630118
 21
125.589144471288
 31
0.0
  0
LINE
  5
74
330
17
100
AcDbEntity
  8
0
100
AcDbLine
 10
3515.01602963012
 20
184.689144471289
 30
0.0
 11
3515.01602963012
 21
134.589144471288
 31
0.0
  0
LINE
  5
75
330
17
100
AcDbEntity
  8
0
100
AcDbLine
 10
3535.016029630118
 20
325.589144471288
 30
0.0
 11
3515.01602963012
 21
325.589144471288
 31
0.0
  0
LINE
  5
76
330
17
100
AcDbEntity
  8
0
100
AcDbLine
 10
3515.01602963012
 20
325.589144471288
 30
0.0
 11
3515.01602963012
 21
266.489144471288
 31
0.0
  0
LINE
  5
77
330
17
100
AcDbEntity
  8
0
100
AcDbLine
 10
3515.01602963012
 20
266.489144471288
 30
0.0
 11
3515.76602963012
 21
266.489144471288
 31
0.0
  0
LINE
  5
78
330
17
100
AcDbEntity
  8
0
100
AcDbLine
 10
3515.76602963012
 20
184.689144471289
 30
0.0
 11
3515.01602963012
 21
184.689144471289
 31
0.0
  0
LINE
  5
79
330
17
100
AcDbEntity
  8
0
100
AcDbLine
 10
3515.76602963012
 20
266.489144471288
 30
0.0
 11
3515.76602963012
 21
184.689144471289
 31
0.0
  0
LINE
  5
7A
330
17
100
AcDbEntity
  8
0
100
AcDbLine
 10
3535.016029630119
 20
125.589144471288
 30
0.0
 11
3535.016029630119
 21
325.589144471288
 31
0.0
  0
LINE
  5
7B
330
17
100
AcDbEntity
  8
0
100
AcDbLine
 10
3619.546689828506
 20
266.389144471288
 30
0.0
 11
3609.796689828506
 21
266.389144471288
 31
0.0
  0
LINE
  5
7C
330
17
100
AcDbEntity
  8
0
100
AcDbLine
 10
3634.546689828506
 20
266.389144471288
 30
0.0
 11
3626.046689828506
 21
266.389144471288
 31
0.0
  0
LINE
  5
7D
330
17
100
AcDbEntity
  8
0
100
AcDbLine
 10
3663.096689828505
 20
266.389144471288
 30
0.0
 11
3641.046689828506
 21
266.389144471288
 31
0.0
  0
LINE
  5
7E
330
17
100
AcDbEntity
  8
0
100
AcDbLine
 10
3700.39668982851
 20
266.389144471288
 30
0.0
 11
3669.596689828505
 21
266.389144471288
 31
0.0
  0
LINE
  5
7F
330
17
100
AcDbEntity
  8
0
100
AcDbLine
 10
3761.546689828506
 20
266.389144471288
 30
0.0
 11
3706.89668982851
 21
266.389144471288
 31
0.0
  0
LINE
  5
80
330
17
100
AcDbEntity
  8
0
100
AcDbLine
 10
3619.546689828506
 20
184.789144471289
 30
0.0
 11
3609.796689828506
 21
184.789144471289
 31
0.0
  0
LINE
  5
81
330
17
100
AcDbEntity
  8
0
100
AcDbLine
 10
3634.546689828506
 20
184.789144471289
 30
0.0
 11
3626.046689828506
 21
184.789144471289
 31
0.0
  0
LINE
  5
82
330
17
100
AcDbEntity
  8
0
100
AcDbLine
 10
3663.096689828505
 20
184.789144471289
 30
0.0
 11
3641.046689828506
 21
184.789144471289
 31
0.0
  0
LINE
  5
83
330
17
100
AcDbEntity
  8
0
100
AcDbLine
 10
3700.39668982851
 20
184.789144471289
 30
0.0
 11
3669.596689828505
 21
184.789144471289
 31
0.0
  0
LINE
  5
84
330
17
100
AcDbEntity
  8
0
100
AcDbLine
 10
3761.546689828506
 20
184.789144471289
 30
0.0
 11
3706.89668982851
 21
184.789144471289
 31
0.0
  0
LINE
  5
85
330
17
100
AcDbEntity
  8
0
100
AcDbLine
 10
3734.371689828506
 20
253.499144471291
 30
0.0
 11
3728.871689828506
 21
253.499144471291
 31
0.0
  0
LINE
  5
86
330
17
100
AcDbEntity
  8
0
100
AcDbLine
 10
3728.021689828506
 20
252.649144471291
 30
0.0
 11
3728.021689828506
 21
248.449144471292
 31
0.0
  0
LINE
  5
87
330
17
100
AcDbEntity
  8
0
100
AcDbLine
 10
3728.871689828506
 20
247.599144471292
 30
0.0
 11
3734.371689828506
 21
247.599144471292
 31
0.0
  0
LINE
  5
88
330
17
100
AcDbEntity
  8
0
100
AcDbLine
 10
3735.221689828505
 20
248.449144471292
 30
0.0
 11
3735.221689828505
 21
252.649144471291
 31
0.0
  0
LINE
  5
89
330
17
100
AcDbEntity
  8
0
100
AcDbLine
 10
3752.671689828502
 20
253.499144471291
 30
0.0
 11
3747.171689828502
 21
253.499144471291
 31
0.0
  0
LINE
  5
8A
330
17
100
AcDbEntity
  8
0
100
AcDbLine
 10
3746.321689828502
 20
252.649144471291
 30
0.0
 11
3746.321689828502
 21
248.449144471292
 31
0.0
  0
LINE
  5
8B
330
17
100
AcDbEntity
  8
0
100
AcDbLine
 10
3747.171689828502
 20
247.599144471292
 30
0.0
 11
3752.671689828502
 21
247.599144471292
 31
0.0
  0
LINE
  5
8C
330
17
100
AcDbEntity
  8
0
100
AcDbLine
 10
3753.521689828502
 20
248.449144471292
 30
0.0
 11
3753.521689828502
 21
252.649144471291
 31
0.0
  0
LINE
  5
8D
330
17
100
AcDbEntity
  8
0
100
AcDbLine
 10
3747.521689828506
 20
197.679144471287
 30
0.0
 11
3753.021689828506
 21
197.679144471287
 31
0.0
  0
LINE
  5
8E
330
17
100
AcDbEntity
  8
0
100
AcDbLine
 10
3753.871689828506
 20
198.529144471287
 30
0.0
 11
3753.871689828506
 21
202.729144471286
 31
0.0
  0
LINE
  5
8F
330
17
100
AcDbEntity
  8
0
100
AcDbLine
 10
3753.021689828506
 20
203.579144471286
 30
0.0
 11
3747.521689828506
 21
203.579144471286
 31
0.0
  0
LINE
  5
90
330
17
100
AcDbEntity
  8
0
100
AcDbLine
 10
3746.671689828506
 20
202.729144471286
 30
0.0
 11
3746.671689828506
 21
198.529144471287
 31
0.0
  0
LINE
  5
91
330
17
100
AcDbEntity
  8
0
100
AcDbLine
 10
3729.22168982851
 20
197.679144471287
 30
0.0
 11
3734.72168982851
 21
197.679144471287
 31
0.0
  0
LINE
  5
92
330
17
100
AcDbEntity
  8
0
100
AcDbLine
 10
3735.571689828509
 20
198.529144471287
 30
0.0
 11
3735.571689828509
 21
202.729144471286
 31
0.0
  0
LINE
  5
93
330
17
100
AcDbEntity
  8
0
100
AcDbLine
 10
3734.72168982851
 20
203.579144471286
 30
0.0
 11
3729.22168982851
 21
203.579144471286
 31
0.0
  0
LINE
  5
94
330
17
100
AcDbEntity
  8
0
100
AcDbLine
 10
3728.37168982851
 20
202.729144471286
 30
0.0
 11
3728.37168982851
 21
198.529144471287
 31
0.0
  0
LINE
  5
95
330
17
100
AcDbEntity
  8
0
100
AcDbLine
 10
3662.021689828506
 20
240.999144471288
 30
0.0
 11
3652.021689828506
 21
240.999144471288
 31
0.0
  0
LINE
  5
96
330
17
100
AcDbEntity
  8
0
100
AcDbLine
 10
3680.321689828502
 20
240.999144471288
 30
0.0
 11
3670.321689828502
 21
240.999144471288
 31
0.0
  0
LINE
  5
97
330
17
100
AcDbEntity
  8
0
100
AcDbLine
 10
3689.821689828505
 20
240.999144471288
 30
0.0
 11
3698.821689828505
 21
240.999144471288
 31
0.0
  0
LINE
  5
98
330
17
100
AcDbEntity
  8
0
100
AcDbLine
 10
3708.121689828501
 20
240.999144471288
 30
0.0
 11
3717.121689828501
 21
240.999144471288
 31
0.0
  0
LINE
  5
99
330
17
100
AcDbEntity
  8
0
100
AcDbLine
 10
3708.471689828507
 20
210.179144471288
 30
0.0
 11
3717.471689828507
 21
210.179144471288
 31
0.0
  0
LINE
  5
9A
330
17
100
AcDbEntity
  8
0
100
AcDbLine
 10
3690.171689828511
 20
210.179144471288
 30
0.0
 11
3699.171689828511
 21
210.179144471288
 31
0.0
  0
LINE
  5
9B
330
17
100
AcDbEntity
  8
0
100
AcDbLine
 10
3680.671689828504
 20
210.179144471288
 30
0.0
 11
3670.671689828504
 21
210.179144471288
 31
0.0
  0
LINE
  5
9C
330
17
100
AcDbEntity
  8
0
100
AcDbLine
 10
3662.371689828508
 20
210.179144471288
 30
0.0
 11
3652.371689828508
 21
210.179144471288
 31
0.0
  0
ARC
  5
9D
330
17
100
AcDbEntity
  8
0
100
AcDbCircle
 10
3659.371689828509
 20
208.679144471288
 30
0.0
 40
1.5
100
AcDbArc
 50
0.0
 51
90.00000000257238
  0
ARC
  5
9E
330
17
100
AcDbEntity
  8
0
100
AcDbCircle
 10
3655.371689828509
 20
208.679144471288
 30
0.0
 40
1.5
100
AcDbArc
 50
90.00000000257238
 51
180.00000000514476
  0
ARC
  5
9F
330
17
100
AcDbEntity
  8
0
100
AcDbCircle
 10
3677.671689828504
 20
208.679144471288
 30
0.0
 40
1.5
100
AcDbArc
 50
0.0
 51
90.00000000257238
  0
ARC
  5
A0
330
17
100
AcDbEntity
  8
0
100
AcDbCircle
 10
3673.671689828504
 20
208.679144471288
 30
0.0
 40
1.5
100
AcDbArc
 50
90.00000000257238
 51
180.00000000514476
  0
ARC
  5
A1
330
17
100
AcDbEntity
  8
0
100
AcDbCircle
 10
3655.021689828506
 20
242.499144471288
 30
0.0
 40
1.5
100
AcDbArc
 50
-180.00000000514476
 51
-90.00000000257238
  0
ARC
  5
A2
330
17
100
AcDbEntity
  8
0
100
AcDbCircle
 10
3659.021689828506
 20
242.499144471288
 30
0.0
 40
1.5
100
AcDbArc
 50
-90.00000000257238
 51
0.0
  0
ARC
  5
A3
330
17
100
AcDbEntity
  8
0
100
AcDbCircle
 10
3673.321689828502
 20
242.499144471288
 30
0.0
 40
1.5
100
AcDbArc
 50
-180.00000000514476
 51
-90.00000000257238
  0
ARC
  5
A4
330
17
100
AcDbEntity
  8
0
100
AcDbCircle
 10
3677.321689828502
 20
242.499144471288
 30
0.0
 40
1.5
100
AcDbArc
 50
-90.00000000257238
 51
0.0
  0
ARC
  5
A5
330
17
100
AcDbEntity
  8
0
100
AcDbCircle
 10
3696.671689828511
 20
208.679144471288
 30
0.0
 40
1.5
100
AcDbArc
 50
0.0
 51
90.00000000257238
  0
ARC
  5
A6
330
17
100
AcDbEntity
  8
0
100
AcDbCircle
 10
3692.671689828511
 20
208.679144471288
 30
0.0
 40
1.5
100
AcDbArc
 50
90.00000000257238
 51
180.00000000514476
  0
ARC
  5
A7
330
17
100
AcDbEntity
  8
0
100
AcDbCircle
 10
3689.29168982851
 20
192.699144471288
 30
0.0
 40
0.20000000000025012
100
AcDbArc
 50
-233.13010236122318
 51
-36.86989764684573
  0
ARC
  5
A8
330
17
100
AcDbEntity
  8
0
100
AcDbCircle
 10
3700.05168982851
 20
192.699144471288
 30
0.0
 40
0.19999999999938609
100
AcDbArc
 50
-143.13010235844885
 51
53.13010235590742
  0
ARC
  5
A9
330
17
100
AcDbEntity
  8
0
100
AcDbCircle
 10
3700.05168982851
 20
208.559144471287
 30
0.0
 40
0.20000000000048318
100
AcDbArc
 50
-53.130102355490536
 51
143.1301023579929
  0
ARC
  5
AA
330
17
100
AcDbEntity
  8
0
100
AcDbCircle
 10
3689.29168982851
 20
208.559144471287
 30
0.0
 40
0.19999999999938609
100
AcDbArc
 50
-323.1301023632875
 51
-126.86989764923734
  0
ARC
  5
AB
330
17
100
AcDbEntity
  8
0
100
AcDbCircle
 10
3707.591689828507
 20
208.559144471287
 30
0.0
 40
0.1999999999999318
100
AcDbArc
 50
-323.13010236259703
 51
-126.86989764944579
  0
ARC
  5
AC
330
17
100
AcDbEntity
  8
0
100
AcDbCircle
 10
3718.351689828507
 20
208.559144471287
 30
0.0
 40
0.20000000000048318
100
AcDbArc
 50
-53.130102355869965
 51
143.1301023579929
  0
ARC
  5
AD
330
17
100
AcDbEntity
  8
0
100
AcDbCircle
 10
3718.351689828507
 20
192.699144471288
 30
0.0
 40
0.1999999999999318
100
AcDbArc
 50
-143.13010235868336
 51
53.13010235569898
  0
ARC
  5
AE
330
17
100
AcDbEntity
  8
0
100
AcDbCircle
 10
3707.591689828507
 20
192.699144471288
 30
0.0
 40
0.20000000000025012
100
AcDbArc
 50
-233.13010236084375
 51
-36.86989764684573
  0
ARC
  5
AF
330
17
100
AcDbEntity
  8
0
100
AcDbCircle
 10
3710.971689828507
 20
208.679144471288
 30
0.0
 40
1.5
100
AcDbArc
 50
90.00000000257238
 51
180.00000000514476
  0
ARC
  5
B0
330
17
100
AcDbEntity
  8
0
100
AcDbCircle
 10
3714.971689828507
 20
208.679144471288
 30
0.0
 40
1.5
100
AcDbArc
 50
0.0
 51
90.00000000257238
  0
ARC
  5
B1
330
17
100
AcDbEntity
  8
0
100
AcDbCircle
 10
3669.871689828504
 20
208.479144471288
 30
0.0
 40
0.1999999999998181
100
AcDbArc
 50
90.00000000257238
 51
180.00000000514476
  0
ARC
  5
B2
330
17
100
AcDbEntity
  8
0
100
AcDbCircle
 10
3681.471689828505
 20
208.479144471288
 30
0.0
 40
0.19999999999998863
100
AcDbArc
 50
0.0
 51
90.00000000257238
  0
ARC
  5
B3
330
17
100
AcDbEntity
  8
0
100
AcDbCircle
 10
3669.871689828504
 20
191.779144471287
 30
0.0
 40
0.19999999999899387
100
AcDbArc
 50
-180.00000000514476
 51
-90.00000000257238
  0
ARC
  5
B4
330
17
100
AcDbEntity
  8
0
100
AcDbCircle
 10
3663.171689828508
 20
208.479144471288
 30
0.0
 40
0.19999999999998863
100
AcDbArc
 50
0.0
 51
90.00000000257238
  0
ARC
  5
B5
330
17
100
AcDbEntity
  8
0
100
AcDbCircle
 10
3651.571689828509
 20
191.779144471287
 30
0.0
 40
0.19999999999899387
100
AcDbArc
 50
-180.00000000514476
 51
-90.00000000257238
  0
ARC
  5
B6
330
17
100
AcDbEntity
  8
0
100
AcDbCircle
 10
3651.571689828509
 20
208.479144471288
 30
0.0
 40
0.20000000000027285
100
AcDbArc
 50
90.00000000257238
 51
180.00000000514476
  0
ARC
  5
B7
330
17
100
AcDbEntity
  8
0
100
AcDbCircle
 10
3661.788847116034
 20
191.779144471288
 30
0.0
 40
0.1999999999996077
100
AcDbArc
 50
-90.00000000257238
 51
-45.00000000127468
  0
ARC
  5
B8
330
17
100
AcDbEntity
  8
0
100
AcDbCircle
 10
3663.171689828508
 20
193.161987183763
 30
0.0
 40
0.1999999999989086
100
AcDbArc
 50
-45.000000001936804
 51
0.0
  0
ARC
  5
B9
330
17
100
AcDbEntity
  8
0
100
AcDbCircle
 10
3680.08884711603
 20
191.779144471288
 30
0.0
 40
0.1999999999996077
100
AcDbArc
 50
-90.00000000257238
 51
-45.00000000127468
  0
ARC
  5
BA
330
17
100
AcDbEntity
  8
0
100
AcDbCircle
 10
3681.471689828504
 20
193.161987183763
 30
0.0
 40
0.1999999999998181
100
AcDbArc
 50
-45.00000000175254
 51
0.0
  0
ARC
  5
BB
330
17
100
AcDbEntity
  8
0
100
AcDbCircle
 10
3651.221689828506
 20
258.016301758814
 30
0.0
 40
0.1999999999996077
100
AcDbArc
 50
135.0000000038701
 51
180.00000000514476
  0
ARC
  5
BC
330
17
100
AcDbEntity
  8
0
100
AcDbCircle
 10
3652.604532540981
 20
259.399144471288
 30
0.0
 40
0.19999999999998863
100
AcDbArc
 50
90.00000000257238
 51
135.00000000406584
  0
ARC
  5
BD
330
17
100
AcDbEntity
  8
0
100
AcDbCircle
 10
3669.521689828502
 20
258.016301758814
 30
0.0
 40
0.1999999999996077
100
AcDbArc
 50
135.0000000038701
 51
180.00000000514476
  0
ARC
  5
BE
330
17
100
AcDbEntity
  8
0
100
AcDbCircle
 10
3670.904532540977
 20
259.399144471288
 30
0.0
 40
0.19999999999998863
100
AcDbArc
 50
90.00000000257238
 51
135.00000000406584
  0
ARC
  5
BF
330
17
100
AcDbEntity
  8
0
100
AcDbCircle
 10
3648.778355211145
 20
227.889144471288
 30
0.0
 40
0.20000000000009507
100
AcDbArc
 50
90.00000000257238
 51
169.5243183083542
  0
ARC
  5
C0
330
17
100
AcDbEntity
  8
0
100
AcDbCircle
 10
3647.696689828506
 20
228.089144471288
 30
0.0
 40
0.8999999999998375
100
AcDbArc
 50
-169.52431830847792
 51
-10.475681696666882
  0
ARC
  5
C1
330
17
100
AcDbEntity
  8
0
100
AcDbCircle
 10
3646.615024445867
 20
227.889144471288
 30
0.0
 40
0.19999999999998863
100
AcDbArc
 50
10.475681696814283
 51
90.00000000257238
  0
ARC
  5
C2
330
17
100
AcDbEntity
  8
0
100
AcDbCircle
 10
3657.496689828506
 20
223.289144471288
 30
0.0
 40
0.1999999999989086
100
AcDbArc
 50
-90.00000000257238
 51
0.0
  0
ARC
  5
C3
330
17
100
AcDbEntity
  8
0
100
AcDbCircle
 10
3637.896689828506
 20
223.289144471288
 30
0.0
 40
0.20000000000001705
100
AcDbArc
 50
-180.00000000514476
 51
-90.00000000257238
  0
ARC
  5
C4
330
17
100
AcDbEntity
  8
0
100
AcDbCircle
 10
3637.896689828506
 20
227.889144471288
 30
0.0
 40
0.20000000000027285
100
AcDbArc
 50
90.00000000257238
 51
180.00000000514476
  0
ARC
  5
C5
330
17
100
AcDbEntity
  8
0
100
AcDbCircle
 10
3657.496689828506
 20
227.889144471288
 30
0.0
 40
0.19999999999998863
100
AcDbArc
 50
0.0
 51
90.00000000257238
  0
ARC
  5
C6
330
17
100
AcDbEntity
  8
0
100
AcDbCircle
 10
3651.696689828506
 20
223.089144471288
 30
0.0
 40
1.5
100
AcDbArc
 50
-90.00000000257238
 51
0.0
  0
ARC
  5
C7
330
17
100
AcDbEntity
  8
0
100
AcDbCircle
 10
3643.696689828506
 20
223.089144471288
 30
0.0
 40
1.5
100
AcDbArc
 50
-180.00000000514476
 51
-90.00000000257238
  0
ARC
  5
C8
330
17
100
AcDbEntity
  8
0
100
AcDbCircle
 10
3718.001689828502
 20
242.619144471289
 30
0.0
 40
0.19999999999938609
100
AcDbArc
 50
-143.13010235806456
 51
53.13010235590742
  0
ARC
  5
C9
330
17
100
AcDbEntity
  8
0
100
AcDbCircle
 10
3707.241689828502
 20
242.619144471289
 30
0.0
 40
0.20000000000084697
100
AcDbArc
 50
-233.1301023606353
 51
-36.869897647073714
  0
ARC
  5
CA
330
17
100
AcDbEntity
  8
0
100
AcDbCircle
 10
3707.241689828502
 20
258.479144471288
 30
0.0
 40
0.19999999999995452
100
AcDbArc
 50
-323.1301023634438
 51
-126.8698976494409
  0
ARC
  5
CB
330
17
100
AcDbEntity
  8
0
100
AcDbCircle
 10
3718.001689828502
 20
258.479144471288
 30
0.0
 40
0.20000000000025012
100
AcDbArc
 50
-53.1301023560784
 51
143.13010235829904
  0
ARC
  5
CC
330
17
100
AcDbEntity
  8
0
100
AcDbCircle
 10
3714.621689828501
 20
242.499144471288
 30
0.0
 40
1.5
100
AcDbArc
 50
-90.00000000257238
 51
0.0
  0
ARC
  5
CD
330
17
100
AcDbEntity
  8
0
100
AcDbCircle
 10
3710.621689828501
 20
242.499144471288
 30
0.0
 40
1.5
100
AcDbArc
 50
-180.00000000514476
 51
-90.00000000257238
  0
ARC
  5
CE
330
17
100
AcDbEntity
  8
0
100
AcDbCircle
 10
3692.321689828505
 20
242.499144471288
 30
0.0
 40
1.5
100
AcDbArc
 50
-180.00000000514476
 51
-90.00000000257238
  0
ARC
  5
CF
330
17
100
AcDbEntity
  8
0
100
AcDbCircle
 10
3696.321689828505
 20
242.499144471288
 30
0.0
 40
1.5
100
AcDbArc
 50
-90.00000000257238
 51
0.0
  0
ARC
  5
D0
330
17
100
AcDbEntity
  8
0
100
AcDbCircle
 10
3699.701689828505
 20
258.479144471288
 30
0.0
 40
0.20000000000025012
100
AcDbArc
 50
-53.13010235570386
 51
143.13010235829904
  0
ARC
  5
D1
330
17
100
AcDbEntity
  8
0
100
AcDbCircle
 10
3688.941689828505
 20
258.479144471288
 30
0.0
 40
0.19999999999995452
100
AcDbArc
 50
-323.1301023638346
 51
-126.8698976494409
  0
ARC
  5
D2
330
17
100
AcDbEntity
  8
0
100
AcDbCircle
 10
3688.941689828505
 20
242.619144471289
 30
0.0
 40
0.20000000000084697
100
AcDbArc
 50
-233.13010236101962
 51
-36.869897647073714
  0
ARC
  5
D3
330
17
100
AcDbEntity
  8
0
100
AcDbCircle
 10
3699.701689828505
 20
242.619144471289
 30
0.0
 40
0.1999999999999318
100
AcDbArc
 50
-143.13010235745224
 51
53.13010235569898
  0
ARC
  5
D4
330
17
100
AcDbEntity
  8
0
100
AcDbCircle
 10
3681.121689828501
 20
242.699144471288
 30
0.0
 40
0.20000000000001705
100
AcDbArc
 50
-90.00000000257238
 51
0.0
  0
ARC
  5
D5
330
17
100
AcDbEntity
  8
0
100
AcDbCircle
 10
3681.121689828501
 20
259.399144471289
 30
0.0
 40
0.1999999999989086
100
AcDbArc
 50
0.0
 51
90.00000000257238
  0
ARC
  5
D6
330
17
100
AcDbEntity
  8
0
100
AcDbCircle
 10
3669.521689828502
 20
242.699144471288
 30
0.0
 40
0.20000000000027285
100
AcDbArc
 50
180.00000000514476
 51
270.0000000077172
  0
ARC
  5
D7
330
17
100
AcDbEntity
  8
0
100
AcDbCircle
 10
3662.821689828506
 20
259.399144471289
 30
0.0
 40
0.1999999999989086
100
AcDbArc
 50
0.0
 51
90.00000000257238
  0
ARC
  5
D8
330
17
100
AcDbEntity
  8
0
100
AcDbCircle
 10
3651.221689828505
 20
242.699144471288
 30
0.0
 40
0.20000000000027285
100
AcDbArc
 50
180.00000000514476
 51
270.0000000077172
  0
ARC
  5
D9
330
17
100
AcDbEntity
  8
0
100
AcDbCircle
 10
3662.821689828506
 20
242.699144471288
 30
0.0
 40
0.20000000000001705
100
AcDbArc
 50
-90.00000000257238
 51
0.0
  0
ARC
  5
DA
330
17
100
AcDbEntity
  8
0
100
AcDbCircle
 10
3734.371689828506
 20
252.649144471291
 30
0.0
 40
0.849999999999909
100
AcDbArc
 50
0.0
 51
90.00000000257238
  0
ARC
  5
DB
330
17
100
AcDbEntity
  8
0
100
AcDbCircle
 10
3728.871689828506
 20
252.649144471291
 30
0.0
 40
0.8499999999999943
100
AcDbArc
 50
90.00000000257238
 51
180.00000000514476
  0
ARC
  5
DC
330
17
100
AcDbEntity
  8
0
100
AcDbCircle
 10
3728.871689828506
 20
248.449144471292
 30
0.0
 40
0.849999999999909
100
AcDbArc
 50
180.00000000514476
 51
270.0000000077172
  0
ARC
  5
DD
330
17
100
AcDbEntity
  8
0
100
AcDbCircle
 10
3734.371689828506
 20
248.449144471292
 30
0.0
 40
0.8499999999999943
100
AcDbArc
 50
-90.00000000257238
 51
0.0
  0
ARC
  5
DE
330
17
100
AcDbEntity
  8
0
100
AcDbCircle
 10
3752.671689828502
 20
252.649144471291
 30
0.0
 40
0.849999999999909
100
AcDbArc
 50
0.0
 51
90.00000000257238
  0
ARC
  5
DF
330
17
100
AcDbEntity
  8
0
100
AcDbCircle
 10
3747.171689828502
 20
252.649144471291
 30
0.0
 40
0.8499999999999943
100
AcDbArc
 50
90.00000000257238
 51
180.00000000514476
  0
ARC
  5
E0
330
17
100
AcDbEntity
  8
0
100
AcDbCircle
 10
3747.171689828502
 20
248.449144471292
 30
0.0
 40
0.8500000000012733
100
AcDbArc
 50
180.00000000514476
 51
270.0000000077172
  0
ARC
  5
E1
330
17
100
AcDbEntity
  8
0
100
AcDbCircle
 10
3752.671689828502
 20
248.449144471292
 30
0.0
 40
0.8499999999999943
100
AcDbArc
 50
-90.00000000257238
 51
0.0
  0
ARC
  5
E2
330
17
100
AcDbEntity
  8
0
100
AcDbCircle
 10
3749.921689828526
 20
248.099144470979
 30
0.0
 40
2.499999999999651
100
AcDbArc
 50
-168.4630409793188
 51
-11.536959025823911
  0
ARC
  5
E3
330
17
100
AcDbEntity
  8
0
100
AcDbCircle
 10
3731.621689828528
 20
248.099144470979
 30
0.0
 40
2.499999999999651
100
AcDbArc
 50
-168.4630409793188
 51
-11.536959025823911
  0
ARC
  5
E4
330
17
100
AcDbEntity
  8
0
100
AcDbCircle
 10
3747.521689828506
 20
198.529144471287
 30
0.0
 40
0.8500000000012733
100
AcDbArc
 50
180.00000000514476
 51
270.0000000077172
  0
ARC
  5
E5
330
17
100
AcDbEntity
  8
0
100
AcDbCircle
 10
3753.021689828506
 20
198.529144471287
 30
0.0
 40
0.8499999999999943
100
AcDbArc
 50
-90.00000000257238
 51
0.0
  0
ARC
  5
E6
330
17
100
AcDbEntity
  8
0
100
AcDbCircle
 10
3753.021689828506
 20
202.729144471286
 30
0.0
 40
0.849999999999909
100
AcDbArc
 50
0.0
 51
90.00000000257238
  0
ARC
  5
E7
330
17
100
AcDbEntity
  8
0
100
AcDbCircle
 10
3747.521689828506
 20
202.729144471286
 30
0.0
 40
0.8500000000000227
100
AcDbArc
 50
90.00000000257238
 51
180.00000000514476
  0
ARC
  5
E8
330
17
100
AcDbEntity
  8
0
100
AcDbCircle
 10
3729.22168982851
 20
198.529144471287
 30
0.0
 40
0.849999999999909
100
AcDbArc
 50
180.00000000514476
 51
270.0000000077172
  0
ARC
  5
E9
330
17
100
AcDbEntity
  8
0
100
AcDbCircle
 10
3734.72168982851
 20
198.529144471287
 30
0.0
 40
0.8499999999999943
100
AcDbArc
 50
-90.00000000257238
 51
0.0
  0
ARC
  5
EA
330
17
100
AcDbEntity
  8
0
100
AcDbCircle
 10
3734.72168982851
 20
202.729144471286
 30
0.0
 40
0.849999999999909
100
AcDbArc
 50
0.0
 51
90.00000000257238
  0
ARC
  5
EB
330
17
100
AcDbEntity
  8
0
100
AcDbCircle
 10
3729.22168982851
 20
202.729144471286
 30
0.0
 40
0.8500000000000227
100
AcDbArc
 50
90.00000000257238
 51
180.00000000514476
  0
ARC
  5
EC
330
17
100
AcDbEntity
  8
0
100
AcDbCircle
 10
3750.271689828506
 20
203.079144471286
 30
0.0
 40
2.4999999999998685
100
AcDbArc
 50
11.536959033145854
 51
168.4630409704077
  0
ARC
  5
ED
330
17
100
AcDbEntity
  8
0
100
AcDbCircle
 10
3731.971689828508
 20
203.079144471286
 30
0.0
 40
2.4999999999998685
100
AcDbArc
 50
11.536959033145854
 51
168.46304097199683
  0
ARC
  5
EE
330
17
100
AcDbEntity
  8
0
100
AcDbCircle
 10
3662.021689828506
 20
242.499144471288
 30
0.0
 40
1.5000000000000782
100
AcDbArc
 50
-90.00000000257238
 51
48.18968510560144
  0
ARC
  5
EF
330
17
100
AcDbEntity
  8
0
100
AcDbCircle
 10
3652.021689828506
 20
242.499144471288
 30
0.0
 40
1.5
100
AcDbArc
 50
-228.18968511074618
 51
-90.00000000257238
  0
ARC
  5
F0
330
17
100
AcDbEntity
  8
0
100
AcDbCircle
 10
3680.321689828502
 20
242.499144471288
 30
0.0
 40
1.5000000000000782
100
AcDbArc
 50
-90.00000000257238
 51
48.18968510560144
  0
ARC
  5
F1
330
17
100
AcDbEntity
  8
0
100
AcDbCircle
 10
3670.321689828502
 20
242.499144471288
 30
0.0
 40
1.5
100
AcDbArc
 50
-228.18968511074618
 51
-90.00000000257238
  0
ARC
  5
F2
330
17
100
AcDbEntity
  8
0
100
AcDbCircle
 10
3689.821689828505
 20
242.499144471288
 30
0.0
 40
1.5000000000000782
100
AcDbArc
 50
131.81031489954336
 51
270.0000000077172
  0
ARC
  5
F3
330
17
100
AcDbEntity
  8
0
100
AcDbCircle
 10
3698.821689828505
 20
242.499144471288
 30
0.0
 40
1.5
100
AcDbArc
 50
-90.00000000257238
 51
48.18968510560145
  0
ARC
  5
F4
330
17
100
AcDbEntity
  8
0
100
AcDbCircle
 10
3708.121689828501
 20
242.499144471288
 30
0.0
 40
1.5000000000000782
100
AcDbArc
 50
131.81031489954336
 51
270.0000000077172
  0
ARC
  5
F5
330
17
100
AcDbEntity
  8
0
100
AcDbCircle
 10
3717.121689828501
 20
242.499144471288
 30
0.0
 40
1.5
100
AcDbArc
 50
-90.00000000257238
 51
48.18968510560145
  0
ARC
  5
F6
330
17
100
AcDbEntity
  8
0
100
AcDbCircle
 10
3731.621689828528
 20
249.099144470979
 30
0.0
 40
3.999999999999819
100
AcDbArc
 50
154.15806724195866
 51
385.84193277495314
  0
ARC
  5
F7
330
17
100
AcDbEntity
  8
0
100
AcDbCircle
 10
3749.921689828526
 20
249.099144470979
 30
0.0
 40
4.0000000000001315
100
AcDbArc
 50
154.15806724202417
 51
385.84193277498446
  0
ARC
  5
F8
330
17
100
AcDbEntity
  8
0
100
AcDbCircle
 10
3750.271689828506
 20
202.079144471286
 30
0.0
 40
3.9999999999998104
100
AcDbArc
 50
-25.841932763903124
 51
205.84193276904503
  0
ARC
  5
F9
330
17
100
AcDbEntity
  8
0
100
AcDbCircle
 10
3731.971689828508
 20
202.079144471286
 30
0.0
 40
4.000000000000158
100
AcDbArc
 50
-25.841932763868588
 51
205.84193276911336
  0
ARC
  5
FA
330
17
100
AcDbEntity
  8
0
100
AcDbCircle
 10
3708.471689828507
 20
208.679144471288
 30
0.0
 40
1.5000000000000782
100
AcDbArc
 50
-270.0000000077172
 51
-131.81031489954336
  0
ARC
  5
FB
330
17
100
AcDbEntity
  8
0
100
AcDbCircle
 10
3717.471689828507
 20
208.679144471288
 30
0.0
 40
1.5
100
AcDbArc
 50
-48.18968510560145
 51
90.00000000257238
  0
ARC
  5
FC
330
17
100
AcDbEntity
  8
0
100
AcDbCircle
 10
3690.171689828511
 20
208.679144471288
 30
0.0
 40
1.5000000000000782
100
AcDbArc
 50
-270.0000000077172
 51
-131.81031489954336
  0
ARC
  5
FD
330
17
100
AcDbEntity
  8
0
100
AcDbCircle
 10
3699.171689828511
 20
208.679144471288
 30
0.0
 40
1.5
100
AcDbArc
 50
-48.18968510560145
 51
90.00000000257238
  0
ARC
  5
FE
330
17
100
AcDbEntity
  8
0
100
AcDbCircle
 10
3680.671689828504
 20
208.679144471288
 30
0.0
 40
1.5000000000000782
100
AcDbArc
 50
-48.18968510560144
 51
90.00000000257238
  0
ARC
  5
FF
330
17
100
AcDbEntity
  8
0
100
AcDbCircle
 10
3670.671689828504
 20
208.679144471288
 30
0.0
 40
1.5
100
AcDbArc
 50
90.00000000257238
 51
228.18968511074618
  0
ARC
  5
100
330
17
100
AcDbEntity
  8
0
100
AcDbCircle
 10
3662.371689828508
 20
208.679144471288
 30
0.0
 40
1.5000000000000782
100
AcDbArc
 50
-48.18968510560144
 51
90.00000000257238
  0
ARC
  5
101
330
17
100
AcDbEntity
  8
0
100
AcDbCircle
 10
3652.371689828508
 20
208.679144471288
 30
0.0
 40
1.5
100
AcDbArc
 50
90.00000000257238
 51
228.18968511074618
  0
CIRCLE
  5
102
330
17
100
AcDbEntity
  8
0
100
AcDbCircle
 10
3694.671689828511
 20
200.629144471289
 30
0.0
 40
0.75
  0
CIRCLE
  5
103
330
17
100
AcDbEntity
  8
0
100
AcDbCircle
 10
3712.971689828508
 20
200.629144471286
 30
0.0
 40
0.75
  0
CIRCLE
  5
104
330
17
100
AcDbEntity
  8
0
100
AcDbCircle
 10
3657.371689828508
 20
200.629144471289
 30
0.0
 40
0.75
  0
CIRCLE
  5
105
330
17
100
AcDbEntity
  8
0
100
AcDbCircle
 10
3675.671689828504
 20
200.629144471289
 30
0.0
 40
0.75
  0
CIRCLE
  5
106
330
17
100
AcDbEntity
  8
0
100
AcDbCircle
 10
3703.646689828506
 20
225.589144471288
 30
0.0
 40
1.7
  0
CIRCLE
  5
107
330
17
100
AcDbEntity
  8
0
100
AcDbCircle
 10
3703.646689828506
 20
225.589144471288
 30
0.0
 40
2.0
  0
CIRCLE
  5
108
330
17
100
AcDbEntity
  8
0
100
AcDbCircle
 10
3666.346689828505
 20
225.589144471288
 30
0.0
 40
2.0
  0
CIRCLE
  5
109
330
17
100
AcDbEntity
  8
0
100
AcDbCircle
 10
3666.346689828505
 20
225.589144471288
 30
0.0
 40
1.7
  0
CIRCLE
  5
10A
330
17
100
AcDbEntity
  8
0
100
AcDbCircle
 10
3764.796689828506
 20
225.589144471288
 30
0.0
 40
1.7
  0
CIRCLE
  5
10B
330
17
100
AcDbEntity
  8
0
100
AcDbCircle
 10
3764.796689828506
 20
225.589144471288
 30
0.0
 40
2.0
  0
CIRCLE
  5
10C
330
17
100
AcDbEntity
  8
0
100
AcDbCircle
 10
3693.796689828506
 20
167.589144471288
 30
0.0
 40
1.7
  0
CIRCLE
  5
10D
330
17
100
AcDbEntity
  8
0
100
AcDbCircle
 10
3693.796689828506
 20
167.589144471288
 30
0.0
 40
2.0
  0
CIRCLE
  5
10E
330
17
100
AcDbEntity
  8
0
100
AcDbCircle
 10
3693.796689828506
 20
283.589144471288
 30
0.0
 40
1.7
  0
CIRCLE
  5
10F
330
17
100
AcDbEntity
  8
0
100
AcDbCircle
 10
3693.796689828506
 20
283.589144471288
 30
0.0
 40
2.0
  0
CIRCLE
  5
110
330
17
100
AcDbEntity
  8
0
100
AcDbCircle
 10
3747.796689828506
 20
225.589144471288
 30
0.0
 40
1.7
  0
CIRCLE
  5
111
330
17
100
AcDbEntity
  8
0
100
AcDbCircle
 10
3747.796689828506
 20
225.589144471288
 30
0.0
 40
2.0
  0
CIRCLE
  5
112
330
17
100
AcDbEntity
  8
0
100
AcDbCircle
 10
3711.796689828506
 20
167.589144471288
 30
0.0
 40
2.0
  0
CIRCLE
  5
113
330
17
100
AcDbEntity
  8
0
100
AcDbCircle
 10
3711.796689828506
 20
167.589144471288
 30
0.0
 40
1.7
  0
CIRCLE
  5
114
330
17
100
AcDbEntity
  8
0
100
AcDbCircle
 10
3711.796689828506
 20
283.589144471288
 30
0.0
 40
1.7
  0
CIRCLE
  5
115
330
17
100
AcDbEntity
  8
0
100
AcDbCircle
 10
3711.796689828506
 20
283.589144471288
 30
0.0
 40
2.0
  0
CIRCLE
  5
116
330
17
100
AcDbEntity
  8
0
100
AcDbCircle
 10
3675.796689828506
 20
167.589144471288
 30
0.0
 40
2.0
  0
CIRCLE
  5
117
330
17
100
AcDbEntity
  8
0
100
AcDbCircle
 10
3675.796689828506
 20
167.589144471288
 30
0.0
 40
1.7
  0
CIRCLE
  5
118
330
17
100
AcDbEntity
  8
0
100
AcDbCircle
 10
3675.796689828506
 20
283.589144471288
 30
0.0
 40
1.7
  0
CIRCLE
  5
119
330
17
100
AcDbEntity
  8
0
100
AcDbCircle
 10
3675.796689828506
 20
283.589144471288
 30
0.0
 40
2.0
  0
CIRCLE
  5
11A
330
17
100
AcDbEntity
  8
0
100
AcDbCircle
 10
3764.796689828506
 20
184.789144471289
 30
0.0
 40
3.25
  0
CIRCLE
  5
11B
330
17
100
AcDbEntity
  8
0
100
AcDbCircle
 10
3764.796689828506
 20
266.389144471288
 30
0.0
 40
3.25
  0
CIRCLE
  5
11C
330
17
100
AcDbEntity
  8
0
100
AcDbCircle
 10
3639.796689828506
 20
142.589144471288
 30
0.0
 40
11.02
  0
CIRCLE
  5
11D
330
17
100
AcDbEntity
  8
0
100
AcDbCircle
 10
3745.796689828506
 20
142.589144471288
 30
0.0
 40
11.02
  0
CIRCLE
  5
11E
330
17
100
AcDbEntity
  8
0
100
AcDbCircle
 10
3747.796689828506
 20
308.589144471288
 30
0.0
 40
11.02
  0
CIRCLE
  5
11F
330
17
100
AcDbEntity
  8
0
100
AcDbCircle
 10
3639.796689828506
 20
308.589144471288
 30
0.0
 40
11.02
  0
CIRCLE
  5
120
330
17
100
AcDbEntity
  8
0
100
AcDbCircle
 10
3726.796689828506
 20
142.589144471288
 30
0.0
 40
5.0
  0
CIRCLE
  5
121
330
17
100
AcDbEntity
  8
0
100
AcDbCircle
 10
3747.796689828506
 20
167.589144471288
 30
0.0
 40
1.7
  0
CIRCLE
  5
122
330
17
100
AcDbEntity
  8
0
100
AcDbCircle
 10
3747.796689828506
 20
167.589144471288
 30
0.0
 40
2.0
  0
CIRCLE
  5
123
330
17
100
AcDbEntity
  8
0
100
AcDbCircle
 10
3764.796689828506
 20
167.589144471288
 30
0.0
 40
2.0
  0
CIRCLE
  5
124
330
17
100
AcDbEntity
  8
0
100
AcDbCircle
 10
3764.796689828506
 20
167.589144471288
 30
0.0
 40
1.7
  0
CIRCLE
  5
125
330
17
100
AcDbEntity
  8
0
100
AcDbCircle
 10
3747.796689828506
 20
283.589144471288
 30
0.0
 40
2.0
  0
CIRCLE
  5
126
330
17
100
AcDbEntity
  8
0
100
AcDbCircle
 10
3747.796689828506
 20
283.589144471288
 30
0.0
 40
1.7
  0
CIRCLE
  5
127
330
17
100
AcDbEntity
  8
0
100
AcDbCircle
 10
3727.796689828506
 20
308.589144471288
 30
0.0
 40
5.0
  0
CIRCLE
  5
128
330
17
100
AcDbEntity
  8
0
100
AcDbCircle
 10
3764.796689828506
 20
283.589144471288
 30
0.0
 40
2.0
  0
CIRCLE
  5
129
330
17
100
AcDbEntity
  8
0
100
AcDbCircle
 10
3764.796689828506
 20
283.589144471288
 30
0.0
 40
1.7
  0
CIRCLE
  5
12A
330
17
100
AcDbEntity
  8
0
100
AcDbCircle
 10
3722.296689828506
 20
190.089144471288
 30
0.0
 40
1.24
  0
CIRCLE
  5
12B
330
17
100
AcDbEntity
  8
0
100
AcDbCircle
 10
3722.296689828506
 20
190.089144471288
 30
0.0
 40
2.5
  0
CIRCLE
  5
12C
330
17
100
AcDbEntity
  8
0
100
AcDbCircle
 10
3722.296689828506
 20
190.089144471288
 30
0.0
 40
2.15
  0
CIRCLE
  5
12D
330
17
100
AcDbEntity
  8
0
100
AcDbCircle
 10
3722.296689828506
 20
261.089144471288
 30
0.0
 40
1.24
  0
CIRCLE
  5
12E
330
17
100
AcDbEntity
  8
0
100
AcDbCircle
 10
3722.296689828506
 20
261.089144471288
 30
0.0
 40
2.5
  0
CIRCLE
  5
12F
330
17
100
AcDbEntity
  8
0
100
AcDbCircle
 10
3722.296689828506
 20
261.089144471288
 30
0.0
 40
2.15
  0
CIRCLE
  5
130
330
17
100
AcDbEntity
  8
0
100
AcDbCircle
 10
3759.596689828506
 20
190.089144471288
 30
0.0
 40
2.15
  0
CIRCLE
  5
131
330
17
100
AcDbEntity
  8
0
100
AcDbCircle
 10
3759.596689828506
 20
190.089144471288
 30
0.0
 40
2.5
  0
CIRCLE
  5
132
330
17
100
AcDbEntity
  8
0
100
AcDbCircle
 10
3759.596689828506
 20
190.089144471288
 30
0.0
 40
1.24
  0
CIRCLE
  5
133
330
17
100
AcDbEntity
  8
0
100
AcDbCircle
 10
3759.596689828506
 20
261.089144471288
 30
0.0
 40
2.15
  0
CIRCLE
  5
134
330
17
100
AcDbEntity
  8
0
100
AcDbCircle
 10
3759.596689828506
 20
261.089144471288
 30
0.0
 40
2.5
  0
CIRCLE
  5
135
330
17
100
AcDbEntity
  8
0
100
AcDbCircle
 10
3759.596689828506
 20
261.089144471288
 30
0.0
 40
1.24
  0
CIRCLE
  5
136
330
17
100
AcDbEntity
  8
0
100
AcDbCircle
 10
3622.796689828507
 20
225.589144471288
 30
0.0
 40
2.0
  0
CIRCLE
  5
137
330
17
100
AcDbEntity
  8
0
100
AcDbCircle
 10
3622.796689828507
 20
225.589144471288
 30
0.0
 40
1.7
  0
CIRCLE
  5
138
330
17
100
AcDbEntity
  8
0
100
AcDbCircle
 10
3634.796689828506
 20
201.589144471288
 30
0.0
 40
1.7
  0
CIRCLE
  5
139
330
17
100
AcDbEntity
  8
0
100
AcDbCircle
 10
3634.796689828506
 20
201.589144471288
 30
0.0
 40
2.0
  0
CIRCLE
  5
13A
330
17
100
AcDbEntity
  8
0
100
AcDbCircle
 10
3634.796689828506
 20
249.589144471288
 30
0.0
 40
2.0
  0
CIRCLE
  5
13B
330
17
100
AcDbEntity
  8
0
100
AcDbCircle
 10
3634.796689828506
 20
249.589144471288
 30
0.0
 40
1.7
  0
CIRCLE
  5
13C
330
17
100
AcDbEntity
  8
0
100
AcDbCircle
 10
3721.796689828506
 20
237.589144471288
 30
0.0
 40
1.7
  0
CIRCLE
  5
13D
330
17
100
AcDbEntity
  8
0
100
AcDbCircle
 10
3721.796689828506
 20
237.589144471288
 30
0.0
 40
2.0
  0
CIRCLE
  5
13E
330
17
100
AcDbEntity
  8
0
100
AcDbCircle
 10
3685.496689828506
 20
237.589144471288
 30
0.0
 40
2.0
  0
CIRCLE
  5
13F
330
17
100
AcDbEntity
  8
0
100
AcDbCircle
 10
3685.496689828506
 20
237.589144471288
 30
0.0
 40
1.7
  0
CIRCLE
  5
140
330
17
100
AcDbEntity
  8
0
100
AcDbCircle
 10
3703.546689828502
 20
250.549144471288
 30
0.0
 40
1.7
  0
CIRCLE
  5
141
330
17
100
AcDbEntity
  8
0
100
AcDbCircle
 10
3703.546689828502
 20
250.549144471288
 30
0.0
 40
2.0
  0
CIRCLE
  5
142
330
17
100
AcDbEntity
  8
0
100
AcDbCircle
 10
3657.021689828506
 20
250.549144471287
 30
0.0
 40
0.75
  0
CIRCLE
  5
143
330
17
100
AcDbEntity
  8
0
100
AcDbCircle
 10
3675.321689828502
 20
250.549144471287
 30
0.0
 40
0.75
  0
CIRCLE
  5
144
330
17
100
AcDbEntity
  8
0
100
AcDbCircle
 10
3712.621689828501
 20
250.549144471287
 30
0.0
 40
0.75
  0
CIRCLE
  5
145
330
17
100
AcDbEntity
  8
0
100
AcDbCircle
 10
3694.321689828504
 20
250.54914447129
 30
0.0
 40
0.75
  0
CIRCLE
  5
146
330
17
100
AcDbEntity
  8
0
100
AcDbCircle
 10
3721.796689828506
 20
213.589144471288
 30
0.0
 40
1.7
  0
CIRCLE
  5
147
330
17
100
AcDbEntity
  8
0
100
AcDbCircle
 10
3721.796689828506
 20
213.589144471288
 30
0.0
 40
2.0
  0
CIRCLE
  5
148
330
17
100
AcDbEntity
  8
0
100
AcDbCircle
 10
3703.74668982851
 20
200.629144471288
 30
0.0
 40
2.0
  0
CIRCLE
  5
149
330
17
100
AcDbEntity
  8
0
100
AcDbCircle
 10
3703.74668982851
 20
200.629144471288
 30
0.0
 40
1.7
  0
CIRCLE
  5
14A
330
17
100
AcDbEntity
  8
0
100
AcDbCircle
 10
3685.496689828506
 20
213.589144471288
 30
0.0
 40
2.0
  0
CIRCLE
  5
14B
330
17
100
AcDbEntity
  8
0
100
AcDbCircle
 10
3685.496689828506
 20
213.589144471288
 30
0.0
 40
1.7
  0
CIRCLE
  5
14C
330
17
100
AcDbEntity
  8
0
100
AcDbCircle
 10
3684.996689828506
 20
190.089144471288
 30
0.0
 40
1.24
  0
CIRCLE
  5
14D
330
17
100
AcDbEntity
  8
0
100
AcDbCircle
 10
3684.996689828506
 20
190.089144471288
 30
0.0
 40
2.5
  0
CIRCLE
  5
14E
330
17
100
AcDbEntity
  8
0
100
AcDbCircle
 10
3684.996689828506
 20
190.089144471288
 30
0.0
 40
2.15
  0
CIRCLE
  5
14F
330
17
100
AcDbEntity
  8
0
100
AcDbCircle
 10
3684.996689828506
 20
261.089144471288
 30
0.0
 40
1.24
  0
CIRCLE
  5
150
330
17
100
AcDbEntity
  8
0
100
AcDbCircle
 10
3684.996689828506
 20
261.089144471288
 30
0.0
 40
2.5
  0
CIRCLE
  5
151
330
17
100
AcDbEntity
  8
0
100
AcDbCircle
 10
3684.996689828506
 20
261.089144471288
 30
0.0
 40
2.15
  0
CIRCLE
  5
152
330
17
100
AcDbEntity
  8
0
100
AcDbCircle
 10
3647.696689828506
 20
190.089144471288
 30
0.0
 40
1.255
  0
CIRCLE
  5
153
330
17
100
AcDbEntity
  8
0
100
AcDbCircle
 10
3647.696689828506
 20
261.089144471288
 30
0.0
 40
1.255
  0
CIRCLE
  5
154
330
17
100
AcDbEntity
  8
0
100
AcDbCircle
 10
3647.696689828506
 20
190.089144471288
 30
0.0
 40
2.25
  0
CIRCLE
  5
155
330
17
100
AcDbEntity
  8
0
100
AcDbCircle
 10
3647.696689828506
 20
261.089144471288
 30
0.0
 40
2.25
  0
CIRCLE
  5
156
330
17
100
AcDbEntity
  8
0
100
AcDbCircle
 10
3622.796689828506
 20
184.789144471289
 30
0.0
 40
3.25
  0
CIRCLE
  5
157
330
17
100
AcDbEntity
  8
0
100
AcDbCircle
 10
3622.796689828506
 20
266.389144471288
 30
0.0
 40
3.25
  0
CIRCLE
  5
158
330
17
100
AcDbEntity
  8
0
100
AcDbCircle
 10
3622.796689828506
 20
167.589144471288
 30
0.0
 40
1.7
  0
CIRCLE
  5
159
330
17
100
AcDbEntity
  8
0
100
AcDbCircle
 10
3622.796689828506
 20
167.589144471288
 30
0.0
 40
2.0
  0
CIRCLE
  5
15A
330
17
100
AcDbEntity
  8
0
100
AcDbCircle
 10
3622.796689828506
 20
283.589144471288
 30
0.0
 40
1.7
  0
CIRCLE
  5
15B
330
17
100
AcDbEntity
  8
0
100
AcDbCircle
 10
3622.796689828506
 20
283.589144471288
 30
0.0
 40
2.0
  0
CIRCLE
  5
15C
330
17
100
AcDbEntity
  8
0
100
AcDbCircle
 10
3659.796689828506
 20
308.589144471288
 30
0.0
 40
5.0
  0
CIRCLE
  5
15D
330
17
100
AcDbEntity
  8
0
100
AcDbCircle
 10
3659.796689828506
 20
142.589144471288
 30
0.0
 40
5.0
  0
CIRCLE
  5
15E
330
17
100
AcDbEntity
  8
0
100
AcDbCircle
 10
3637.796689828506
 20
266.389144471288
 30
0.0
 40
3.25
  0
CIRCLE
  5
15F
330
17
100
AcDbEntity
  8
0
100
AcDbCircle
 10
3637.796689828506
 20
184.789144471289
 30
0.0
 40
3.25
  0
CIRCLE
  5
160
330
17
100
AcDbEntity
  8
0
100
AcDbCircle
 10
3666.346689828505
 20
184.789144471289
 30
0.0
 40
3.25
  0
CIRCLE
  5
161
330
17
100
AcDbEntity
  8
0
100
AcDbCircle
 10
3666.346689828505
 20
266.389144471288
 30
0.0
 40
3.25
  0
CIRCLE
  5
162
330
17
100
AcDbEntity
  8
0
100
AcDbCircle
 10
3703.64668982851
 20
184.789144471289
 30
0.0
 40
3.25
  0
CIRCLE
  5
163
330
17
100
AcDbEntity
  8
0
100
AcDbCircle
 10
3703.64668982851
 20
266.389144471288
 30
0.0
 40
3.25
  0
CIRCLE
  5
164
330
17
100
AcDbEntity
  8
0
100
AcDbCircle
 10
3639.796689828506
 20
283.589144471288
 30
0.0
 40
2.0
  0
CIRCLE
  5
165
330
17
100
AcDbEntity
  8
0
100
AcDbCircle
 10
3639.796689828506
 20
283.589144471288
 30
0.0
 40
1.7
  0
CIRCLE
  5
166
330
17
100
AcDbEntity
  8
0
100
AcDbCircle
 10
3639.796689828506
 20
167.589144471288
 30
0.0
 40
1.7
  0
CIRCLE
  5
167
330
17
100
AcDbEntity
  8
0
100
AcDbCircle
 10
3639.796689828506
 20
167.589144471288
 30
0.0
 40
2.0
  0
CIRCLE
  5
168
330
17
100
AcDbEntity
  8
0
100
AcDbCircle
 10
3520.016029630119
 20
300.589144471288
 30
0.0
 40
1.7
  0
CIRCLE
  5
169
330
17
100
AcDbEntity
  8
0
100
AcDbCircle
 10
3520.016029630119
 20
300.589144471288
 30
0.0
 40
2.0
  0
CIRCLE
  5
16A
330
17
100
AcDbEntity
  8
0
100
AcDbCircle
 10
3528.016029630119
 20
300.589144471288
 30
0.0
 40
1.7
  0
CIRCLE
  5
16B
330
17
100
AcDbEntity
  8
0
100
AcDbCircle
 10
3528.016029630119
 20
300.589144471288
 30
0.0
 40
2.0
  0
CIRCLE
  5
16C
330
17
100
AcDbEntity
  8
0
100
AcDbCircle
 10
3731.621689828506
 20
250.549144471291
 30
0.0
 40
0.75
  0
CIRCLE
  5
16D
330
17
100
AcDbEntity
  8
0
100
AcDbCircle
 10
3749.921689828502
 20
250.549144471291
 30
0.0
 40
0.75
  0
CIRCLE
  5
16E
330
17
100
AcDbEntity
  8
0
100
AcDbCircle
 10
3731.97168982851
 20
200.629144471286
 30
0.0
 40
0.75
  0
CIRCLE
  5
16F
330
17
100
AcDbEntity
  8
0
100
AcDbCircle
 10
3750.271689828506
 20
200.629144471286
 30
0.0
 40
0.75
  0
CIRCLE
  5
170
330
17
100
AcDbEntity
  8
0
100
AcDbCircle
 10
3647.696689828506
 20
225.589144471288
 30
0.0
 40
0.75
  0
ENDSEC
  0
SECTION
  2
OBJECTS
  0
DICTIONARY
  5
A
330
0
100
AcDbDictionary
281
1
  3
ACAD_COLOR
350
B
  3
ACAD_GROUP
350
C
  3
ACAD_LAYOUT
350
D
  3
ACAD_MATERIAL
350
E
  3
ACAD_MLEADERSTYLE
350
F
  3
ACAD_MLINESTYLE
350
10
  3
ACAD_PLOTSETTINGS
350
11
  3
ACAD_PLOTSTYLENAME
350
12
  3
ACAD_SCALELIST
350
14
  3
ACAD_TABLESTYLE
350
15
  3
ACAD_VISUALSTYLE
350
16
  3
EZDXF_META
350
2D
  0
DICTIONARY
  5
B
330
A
100
AcDbDictionary
281
1
  0
DICTIONARY
  5
C
330
A
100
AcDbDictionary
281
1
  0
DICTIONARY
  5
D
330
A
100
AcDbDictionary
281
1
  3
Model
350
1A
  3
Layout1
350
1E
  0
DICTIONARY
  5
E
330
A
100
AcDbDictionary
281
1
  3
ByBlock
350
1F
  3
ByLayer
350
20
  3
Global
350
21
  0
DICTIONARY
  5
F
330
A
100
AcDbDictionary
281
1
  3
Standard
350
2C
  0
DICTIONARY
  5
10
330
A
100
AcDbDictionary
281
1
  3
Standard
350
22
  0
DICTIONARY
  5
11
330
A
100
AcDbDictionary
281
1
  0
ACDBDICTIONARYWDFLT
  5
12
330
A
100
AcDbDictionary
281
1
  3
Normal
350
13
100
AcDbDictionaryWithDefault
340
13
  0
ACDBPLACEHOLDER
  5
13
330
12
  0
DICTIONARY
  5
14
330
A
100
AcDbDictionary
281
1
  0
DICTIONARY
  5
15
330
A
100
AcDbDictionary
281
1
  0
DICTIONARY
  5
16
330
A
100
AcDbDictionary
281
1
  0
LAYOUT
  5
1A
330
D
100
AcDbPlotSettings
  1

  4
A3
  6

 40
7.5
 41
20.0
 42
7.5
 43
20.0
 44
420.0
 45
297.0
 46
0.0
 47
0.0
 48
0.0
 49
0.0
140
0.0
141
0.0
142
1.0
143
1.0
 70
1024
 72
1
 73
0
 74
5
  7

 75
16
 76
0
 77
2
 78
300
147
1.0
148
0.0
149
0.0
100
AcDbLayout
  1
Model
 70
1
 71
0
 10
0.0
 20
0.0
 11
420.0
 21
297.0
 12
0.0
 22
0.0
 32
0.0
 14
1e+20
 24
1e+20
 34
1e+20
 15
-1e+20
 25
-1e+20
 35
-1e+20
146
0.0
 13
0.0
 23
0.0
 33
0.0
 16
1.0
 26
0.0
 36
0.0
 17
0.0
 27
1.0
 37
0.0
 76
1
330
17
  0
LAYOUT
  5
1E
330
D
100
AcDbPlotSettings
  1

  4
A3
  6

 40
7.5
 41
20.0
 42
7.5
 43
20.0
 44
420.0
 45
297.0
 46
0.0
 47
0.0
 48
0.0
 49
0.0
140
0.0
141
0.0
142
1.0
143
1.0
 70
0
 72
1
 73
0
 74
5
  7

 75
16
 76
0
 77
2
 78
300
147
1.0
148
0.0
149
0.0
100
AcDbLayout
  1
Layout1
 70
1
 71
1
 10
0.0
 20
0.0
 11
420.0
 21
297.0
 12
0.0
 22
0.0
 32
0.0
 14
1e+20
 24
1e+20
 34
1e+20
 15
-1e+20
 25
-1e+20
 35
-1e+20
146
0.0
 13
0.0
 23
0.0
 33
0.0
 16
1.0
 26
0.0
 36
0.0
 17
0.0
 27
1.0
 37
0.0
 76
1
330
1B
  0
MATERIAL
  5
1F
102
{ACAD_REACTORS
330
E
102
}
330
E
100
AcDbMaterial
  1
ByBlock
  2

 70
0
 40
1.0
 71
1
 41
1.0
 91
-1023410177
 42
1.0
 72
1
  3

 73
1
 74
1
 75
1
 44
0.5
 73
0
 45
1.0
 46
1.0
 77
1
  4

 78
1
 79
1
170
1
 48
1.0
171
1
  6

172
1
173
1
174
1
140
1.0
141
1.0
175
1
  7

176
1
177
1
178
1
143
1.0
179
1
  8

270
1
271
1
272
1
145
1.0
146
1.0
273
1
  9

274
1
275
1
276
1
 42
1.0
 72
1
  3

 73
1
 74
1
 75
1
 94
63
  0
MATERIAL
  5
20
102
{ACAD_REACTORS
330
E
102
}
330
E
100
AcDbMaterial
  1
ByLayer
  2

 70
0
 40
1.0
 71
1
 41
1.0
 91
-1023410177
 42
1.0
 72
1
  3

 73
1
 74
1
 75
1
 44
0.5
 73
0
 45
1.0
 46
1.0
 77
1
  4

 78
1
 79
1
170
1
 48
1.0
171
1
  6

172
1
173
1
174
1
140
1.0
141
1.0
175
1
  7

176
1
177
1
178
1
143
1.0
179
1
  8

270
1
271
1
272
1
145
1.0
146
1.0
273
1
  9

274
1
275
1
276
1
 42
1.0
 72
1
  3

 73
1
 74
1
 75
1
 94
63
  0
MATERIAL
  5
21
102
{ACAD_REACTORS
330
E
102
}
330
E
100
AcDbMaterial
  1
Global
  2

 70
0
 40
1.0
 71
1
 41
1.0
 91
-1023410177
 42
1.0
 72
1
  3

 73
1
 74
1
 75
1
 44
0.5
 73
0
 45
1.0
 46
1.0
 77
1
  4

 78
1
 79
1
170
1
 48
1.0
171
1
  6

172
1
173
1
174
1
140
1.0
141
1.0
175
1
  7

176
1
177
1
178
1
143
1.0
179
1
  8

270
1
271
1
272
1
145
1.0
146
1.0
273
1
  9

274
1
275
1
276
1
 42
1.0
 72
1
  3

 73
1
 74
1
 75
1
 94
63
  0
MLINESTYLE
  5
22
102
{ACAD_REACTORS
330
10
102
}
330
10
100
AcDbMlineStyle
  2
Standard
 70
0
  3

 62
256
 51
90.0
 52
90.0
 71
2
 49
0.5
 62
256
  6
BYLAYER
 49
-0.5
 62
256
  6
BYLAYER
  0
MLEADERSTYLE
  5
2C
102
{ACAD_REACTORS
330
F
102
}
330
F
100
AcDbMLeaderStyle
179
2
170
2
171
1
172
0
 90
2
 40
0.0
 41
0.0
173
1
 91
-1056964608
 92
-2
290
1
 42
2.0
291
1
 43
8.0
  3
Standard
 44
4.0
300

342
29
174
1
175
1
176
0
178
1
 93
-1056964608
 45
4.0
292
0
297
0
 46
4.0
 94
-1056964608
 47
1.0
 49
1.0
140
1.0
294
1
141
0.0
177
0
142
1.0
295
0
296
0
143
3.75
271
0
272
9
273
9
  0
DICTIONARY
  5
2D
330
A
100
AcDbDictionary
280
1
281
1
  3
CREATED_BY_EZDXF
350
2E
  3
WRITTEN_BY_EZDXF
350
173
  0
DICTIONARYVAR
  5
2E
330
2D
100
DictionaryVariables
280
0
  1
1.4.3 @ 2026-06-19T01:11:30.747886+00:00
  0
DICTIONARYVAR
  5
173
330
2D
100
DictionaryVariables
280
0
  1
1.4.3 @ 2026-06-19T01:11:30.754182+00:00
  0
ENDSEC
  0
EOF
